<svg xmlns="http://www.w3.org/2000/svg" width="359" height="88.27" viewBox="0 0 359 88.27">
  <g id="Group_1764" data-name="Group 1764" transform="translate(-32 -31.966)">
    <path id="Path_21163" data-name="Path 21163" d="M66.027,55.175c0-2.454-1.2-5.6-5.411-5.537,6.225-2.957,10.818-.881,10.818,3.586,0,3.268-2.265,5.722-7.987,9.056a10.811,10.811,0,0,0,2.58-7.106M56.9,39.89c0-3.083-1.506-6.791-3.646-7.924,5.407.126,9.371,3.016,9.371,7.8,0,4.845-3.9,7.232-9.5,9.5,3.02-2.58,3.771-5.659,3.771-9.371m5.6,36.352c-2.894-3.457-6.225-7.169-15.282-19.308-3.649-4.9-6.355-9.493-6.355-13.457a11.092,11.092,0,0,1,9.245-11.2C48.229,33.6,47.03,36.87,47.03,39.7c0,4.589,5.033,11.133,10,17.424,2.953,3.771,6.1,7.735,9.241,11.381,4.467,5.159,6.669,6.98,10.067,7.735Zm-18.868.944C36.656,77.185,32,70.016,32,64.295c0-5.159,3.335-7.169,10.881-10.252-2.831,2.135-3.708,3.9-3.708,6.288,0,5.222,4.967,12.2,10.126,12.2a10.182,10.182,0,0,0,5.911-1.888c-3.02,3.523-6.355,6.54-11.573,6.54" transform="translate(0 0)" fill="#170d65"/>
    <path id="Path_21164" data-name="Path 21164" d="M64.71,87.285c3.9-1.51,7.232-4.278,12.076-10.629L75.529,87.285Zm-19.937,0c4.275-1.577,5.159-3.4,5.159-8.368v-26.6c0-5.033-.885-6.854-5.159-8.427h17.61c-4.212,1.573-5.1,3.394-5.1,8.427V87.285Z" transform="translate(34.5 32.199)" fill="#170d65"/>
    <path id="Path_21165" data-name="Path 21165" d="M74.173,87.285c4.719-1.825,7.424-4.782,12.2-10.629L85.117,87.285Zm9.119-33.713C79.647,48.35,77,45.334,73.547,43.887h9.745ZM80.465,70.238a22.686,22.686,0,0,0-8.934-5.281,19.374,19.374,0,0,0,8.934-5.285ZM53.61,87.285c4.275-1.577,5.093-3.272,5.093-8.62V52.44c0-5.159-.818-6.98-5.093-8.553H66.06v43.4Z" transform="translate(58.369 32.199)" fill="#170d65"/>
    <path id="Path_21166" data-name="Path 21166" d="M90.518,87.423c2.45-.755,3.523-1.888,3.523-4.09,0-2.391-1.133-5.973-3.083-11.573H73.79L74.6,69.5H90.2l-7.928-23.02.881-2.639h5.411L99.952,75.85c3.016,8.49,4.526,10.252,7.483,11.573Zm-27.987,0c3.394-1.447,6.351-2.957,10.374-12.769a24.879,24.879,0,0,0-.751,5.722c0,3.775.881,5.788,4.4,7.047Z" transform="translate(82.465 32.061)" fill="#170d65"/>
    <path id="Path_21167" data-name="Path 21167" d="M111.848,87.285c-7.609,0-7.987-.189-11.569-5.914L91.536,67.6c5.47-.5,10.629-4.338,10.629-12.073,0-4.97-2.58-10.063-7.865-11.573,9.686.5,15.411,3.586,15.411,11.384,0,6.728-5.474,10.189-11.007,11.447l9.811,13.646c3.649,5.1,4.782,5.914,8.113,6.858Zm-36.981,0c4.278-1.577,5.159-3.272,5.159-8.62V52.44c0-5.281-.881-6.98-5.159-8.553H87.384V78.666c0,5.348.881,7.043,5.093,8.62Z" transform="translate(115.785 32.199)" fill="#170d65"/>
    <path id="Path_21168" data-name="Path 21168" d="M133.623,43.887c-3.583,1.825-5.725,6.036-6.229,18.427-.566-11.888-2.261-16.854-6.41-18.427ZM86.2,87.285c4.023-1.7,5.785-4.656,6.728-18.679.818,14.023,3.4,16.98,7.483,18.679Zm39.309.437L95.888,52.188c-2.89-3.394-5.911-6.791-10.315-8.3H98.342l29.183,34.531v9.3Z" transform="translate(144.702 32.199)" fill="#170d65"/>
    <path id="Path_21169" data-name="Path 21169" d="M99.025,87.285c4.275-1.577,5.093-3.209,5.093-8.368v-26.6c0-5.156-.818-6.854-5.093-8.427h17.609c-4.278,1.573-5.159,3.272-5.159,8.427v26.6c0,5.159.881,6.791,5.159,8.368Z" transform="translate(181.037 32.199)" fill="#170d65"/>
    <path id="Path_21170" data-name="Path 21170" d="M152.292,43.887c-3.583,1.825-5.722,6.036-6.225,18.427-.566-11.888-2.265-16.854-6.418-18.427Zm-47.418,43.4c4.023-1.7,5.785-4.656,6.728-18.679.814,14.023,3.394,16.98,7.483,18.679Zm39.3.437L114.556,52.188c-2.894-3.394-5.911-6.791-10.315-8.3H117.01l29.183,34.531v9.3Z" transform="translate(195.125 32.199)" fill="#170d65"/>
    <path id="Path_21171" data-name="Path 21171" d="M150.385,74.627c0-4.656-.94-6.481-5.03-8.176h15.911c-3.079,1.636-3.96,2.576-3.96,8.176V86.075a54.972,54.972,0,0,1-10.692,2.265,8.619,8.619,0,0,0,3.771-3.209Zm5.725-18.868c-3.209-5.156-7.043-10.566-11.07-12.076a42.424,42.424,0,0,1,11.07,2.265ZM117.054,66.389c0-12.706,10.126-20.5,20.248-22.328-6.854,2.58-12.2,11.007-12.2,21.762,0,11.951,6.036,20.692,14.027,22.765-12.139-.566-22.077-8.931-22.077-22.2" transform="translate(229.734 31.648)" fill="#170d65"/>
  </g>
</svg>
