<svg xmlns="http://www.w3.org/2000/svg" xmlns:xlink="http://www.w3.org/1999/xlink" width="163" height="108.775" viewBox="0 0 163 108.775"><defs><style>.a{fill:#fff;}.b{fill:#00aa14;}.c{fill:#00461b;}.d{fill:#004c1b;}.e{fill:#00521a;}.f{fill:#00571a;}.g{fill:#005d1a;}.h{fill:#006319;}.i{fill:#006919;}.j{fill:#007018;}.k{fill:#007617;}.l{fill:#007d17;}.m{fill:#008416;}.n{fill:#008a15;}.o{fill:#009114;}.p{fill:#009514;}.q{fill:#009914;}.r{fill:#009e14;}.s{fill:#00a214;}.t{fill:#00a614;}.u{fill:url(#a);}</style><radialGradient id="a" cx="0.297" cy="0.688" r="0.867" gradientTransform="matrix(0.874, -0.125, -0.11, -0.992, 5.059, -75.35)" gradientUnits="objectBoundingBox"><stop offset="0" stop-color="#f0e15a"/><stop offset="0.098" stop-color="#f0dd55"/><stop offset="0.216" stop-color="#f0d346"/><stop offset="0.3" stop-color="#f0c837"/><stop offset="1" stop-color="#f0aa00"/></radialGradient></defs><g transform="translate(-4375 -803)"><g transform="translate(4375 823.646)"><path class="a" d="M698.064,209.162v6.522c-44.988,0-81.39,18.145-81.39,40.424,0,22.818,36.4,41.183,81.39,41.183,45.1,0,81.61-18.8,81.61-42.053C779.674,229.809,743.161,209.162,698.064,209.162ZM761.635,223.4a5.325,5.325,0,1,0-5.325-5.325A5.333,5.333,0,0,0,761.635,223.4Z" transform="translate(-616.674 -209.162)"/></g><path class="b" d="M718.1,210.967a10.359,10.359,0,0,1-1.3,2.391c11.409,2.5,23.579,6.845,32.274,13.147.324.218,0,.761-.326.544-14.779-7.607-34.014-11.518-53.9-11.518-42.054,0-76.065,16.843-76.065,37.707,0,21.3,34.121,38.466,76.065,38.466,42.162,0,76.285-17.6,76.285-39.445C771.129,233.026,748.853,216.616,718.1,210.967Zm40.315,8.692a4.346,4.346,0,1,0-4.346-4.346A4.359,4.359,0,0,0,758.415,219.659Zm0-7.824a3.479,3.479,0,1,1-3.37,3.478A3.483,3.483,0,0,1,758.415,211.835Zm-1.632,5.651h.87c.109,0,.109-.109.109-.218v-1.52h.326a.815.815,0,0,1,.544.109,2.3,2.3,0,0,1,.326.541l.217.761c0,.109,0,.109.106.109l.109.109h1.2v-.109a.842.842,0,0,0-.109-.326l-.218-.761a1,1,0,0,0-.435-.65,2.384,2.384,0,0,0-.544-.326,1.752,1.752,0,0,0,.761-.435,1.071,1.071,0,0,0,.326-.87.8.8,0,0,0-.109-.541,1.5,1.5,0,0,0-.326-.435.831.831,0,0,0-.544-.218c-.215,0-.432-.109-.759-.109h-1.305c-.218,0-.326,0-.326.109-.109.109-.109.218-.109.435v4.02C756.677,217.377,756.677,217.486,756.783,217.486Zm.979-3.8h.979a.38.38,0,0,1,.218.109c.109,0,.109.109.109.218v.218a.565.565,0,0,1-.217.435.92.92,0,0,1-.653.218h-.435v-1.2Z" transform="translate(3761.546 617.245)"/><path class="c" d="M730.818,276.477c.435-.109.653.326.218.544-10.759,4.346-25.755,6.845-41.186,6.845-37.381,0-67.806-15.646-67.806-34.991s30.316-34.988,67.806-34.988c42.162,0,67.917,18.254,67.808,34.12-.109,14.017-18.8,27.384-56.506,27.384-15.757,0-35.643-2.934-51.616-9.345-.761-.326-1.088.759-.435,1.085C666.706,276.369,698.327,282.89,730.818,276.477Z" transform="translate(3766.54 621.714)"/><g transform="translate(4394.995 836.687)"><ellipse class="c" cx="61.396" cy="28.688" rx="61.396" ry="28.688"/><path class="d" d="M684.99,267.759c-34.012,0-60.093-11.738-59.766-26.625.326-14.343,26.625-26.731,59.766-26.731s59.44,12.5,59.766,26.731C745.083,256.13,719,267.759,684.99,267.759Z" transform="translate(-623.595 -214.186)"/><path class="e" d="M684.075,263.8c-34.12,0-58.9-10.541-58.244-24.449.65-12.714,25.752-24.776,58.244-24.776s57.593,12.062,58.246,24.776C742.974,253.259,718.2,263.8,684.075,263.8Z" transform="translate(-622.68 -213.923)"/><path class="f" d="M683.166,259.866c-34.229,0-57.7-9.347-56.723-22.385.87-11.194,24.885-22.82,56.723-22.82s55.855,11.626,56.725,22.82C740.868,250.519,717.4,259.866,683.166,259.866Z" transform="translate(-621.771 -213.791)"/><path class="g" d="M682.266,255.842c-34.338,0-56.614-8.151-55.2-20.212,1.085-9.562,24.014-20.753,55.2-20.753s54.009,11.191,55.2,20.753C738.883,247.691,716.606,255.842,682.266,255.842Z" transform="translate(-620.87 -213.462)"/><path class="h" d="M681.31,251.91c-34.447,0-55.418-6.957-53.571-18.148,1.3-8.042,23.146-18.8,53.571-18.8s52.268,10.759,53.573,18.8C736.73,244.953,715.759,251.91,681.31,251.91Z" transform="translate(-619.915 -213.332)"/><path class="i" d="M680.44,247.951c34.555,0,54.444-5.76,52.051-15.972-1.52-6.413-22.276-16.845-52.051-16.845s-50.528,10.324-52.051,16.845C626,242.082,645.885,247.951,680.44,247.951Z" transform="translate(-619.045 -213.069)"/><path class="i" d="M680.44,247.951c34.555,0,54.444-5.76,52.051-15.972-1.52-6.413-22.276-16.845-52.051-16.845s-50.528,10.324-52.051,16.845C626,242.082,645.885,247.951,680.44,247.951Z" transform="translate(-619.045 -213.069)"/><path class="j" d="M679.1,245.623c33.8,0,51.836-5.107,49.878-14.67-1.3-6.2-21.515-15.649-49.878-15.649s-48.681,9.453-49.878,15.649C627.263,240.516,645.3,245.623,679.1,245.623Z" transform="translate(-617.701 -212.806)"/><path class="k" d="M677.761,243.339c33.144,0,49.336-4.455,47.7-13.367-.976-5.869-20.754-14.452-47.7-14.452s-46.726,8.583-47.7,14.452C628.427,238.99,644.62,243.339,677.761,243.339Z" transform="translate(-616.366 -212.477)"/><path class="l" d="M676.421,241.055c32.382,0,46.728-3.7,45.531-12.064-.761-5.54-19.995-13.256-45.531-13.256s-44.77,7.716-45.529,13.256C629.7,237.359,644.039,241.055,676.421,241.055Z" transform="translate(-615.026 -212.148)"/><path class="m" d="M675.085,238.769c31.623,0,44.12-3.041,43.359-10.756-.544-5.216-19.233-12.064-43.359-12.064-24.232,0-42.921,6.848-43.356,12.064C630.967,235.729,643.464,238.769,675.085,238.769Z" transform="translate(-613.69 -211.821)"/><path class="n" d="M673.759,236.551c30.862,0,41.621-2.282,41.186-9.562-.218-4.89-18.474-10.868-41.186-10.868s-40.966,5.978-41.183,10.868C632.141,234.16,642.9,236.551,673.759,236.551Z" transform="translate(-612.364 -211.558)"/><path class="o" d="M672.438,234.289c30.209,0,39.013-1.629,39.013-8.259,0-4.672-17.6-9.78-39.013-9.78s-39.01,5.107-39.01,9.78C633.319,232.66,642.228,234.289,672.438,234.289Z" transform="translate(-611.042 -211.36)"/><path class="o" d="M672.438,234.289c30.209,0,39.013-1.629,39.013-8.259,0-4.672-17.6-9.78-39.013-9.78s-39.01,5.107-39.01,9.78C633.319,232.66,642.228,234.289,672.438,234.289Z" transform="translate(-611.042 -211.36)"/><path class="p" d="M670.663,231.719c-27.058,0-36.076-1.305-36.076-6.739,0-3.911,16.3-8.257,36.076-8.257s36.078,4.346,36.078,8.257C706.741,230.414,697.72,231.719,670.663,231.719Z" transform="translate(-609.267 -210.637)"/><path class="q" d="M668.889,229.236c-24.015,0-33.142-.868-33.142-5.322,0-3.261,14.887-6.848,33.142-6.848,18.148,0,33.144,3.587,33.144,6.848C701.923,228.369,692.905,229.236,668.889,229.236Z" transform="translate(-607.493 -210.112)"/><path class="r" d="M667.158,226.755c-20.971,0-30.209-.544-30.209-3.911,0-2.5,13.584-5.434,30.1-5.434s30.1,2.934,30.1,5.434C697.15,226.211,688.023,226.755,667.158,226.755Z" transform="translate(-605.654 -209.586)"/><path class="s" d="M665.384,224.273c-17.821,0-27.275-.109-27.275-2.5,0-1.847,12.17-4.02,27.166-4.02,14.887,0,27.166,2.173,27.166,4.02C692.441,224.164,683.206,224.273,665.384,224.273Z" transform="translate(-603.88 -209.06)"/><path class="t" d="M663.544,221.793c-14.778,0-24.232.218-24.232-1.088,0-1.194,10.867-2.608,24.123-2.608s24.126,1.414,24.126,2.608C687.561,222.119,678.322,221.793,663.544,221.793Z" transform="translate(-602.04 -208.535)"/><path class="b" d="M682.852,219.678c0,.326-9.345-.324-21.082-.324s-21.3.65-21.3.324c0-.433,9.453-1.194,21.189-1.194S682.852,219.245,682.852,219.678Z" transform="translate(-600.265 -207.943)"/></g><path class="a" d="M662.813,256.81c-2.823-5-5.758-18.039-8.692-34.773-.218-1.194-.435-1.629-1.523-1.629a28.889,28.889,0,0,0-6.628.976c-1.085,2.717-2.608,5.325-7.607,12.932-12.714,19.233-13.364,24.449-2.173,22.711-.218-1.738-.109-4.346,1.955-8.259,0,0,2.717-1.52,13.041-1.629C653.142,257.68,654.665,257.789,662.813,256.81Zm-21.95-14.343c2.391-4.564,5.869-9.671,7.607-13.476.326,3.37,1.738,12.714,1.738,12.714A40.967,40.967,0,0,0,640.863,242.467ZM684.874,230.4c-3.261,0-7.392,3.149-9.891,8.366a24.126,24.126,0,0,0,.218-6.737c-.109-.544-.432-.979-1.955-.87a14.959,14.959,0,0,0-5.434,1.523s1.2,3.152-1.412,19.016c-.761,4.781,2.5,6.2,8.042,5.325-2.173-3.152,1.738-22.276,10.756-18.366C688.785,233.122,687.806,230.4,684.874,230.4Zm13.038,10.324c2.391-12.605,3.043-19.453,3.043-21.626,0-.653-.326-1.52-2.282-1.52a12.291,12.291,0,0,0-5.869,1.412c.217.761.87,6.086-3.8,27.928-1.955,9.345-.217,11.409,7.607,10C696.066,254.637,696.066,250.4,697.912,240.729Zm31.624-5.325c.432-2.39-.218-3.37-2.282-3.913-13.911-3.911-24.343,4.89-24.343,16.951,0,4.566,2.282,8.912,7.28,8.912,4.022,0,7.607-2.717,10.106-5.869a19.8,19.8,0,0,0,.109,3.37c.435,2.173,2.608,3.261,7.607,1.629C727.145,253.44,727.578,246.051,729.536,235.4Zm-7.174.65c-.759,7.716-3.8,15.322-8.583,15.322-1.955,0-3.37-1.52-3.37-4.128C710.409,240.729,715.625,233.881,722.362,236.054Z" transform="translate(3776.082 627.364)"/><path class="a" d="M639.133,222.626c-3.913,2.717-3.7,10.432.87,15.866,4.455,5.431,11.517,6.3,16.081,3.911-.87,5.107,1.846,10.432,12.279,7.063,10.541-3.367,11.085-10.432,8.912-15.649,5.866.435,12.17-2.064,14.126-8.148,1.412-4.455.544-10-4.128-12.823.217-6.413-7.716-11.953-15.54-11.844-4.022.109-6.522,2.608-6.737,5.975-5.216-5.758-12.282-5.866-19.018,0-6.519,5.651-7.716,13.476-4.346,16.736C641.088,223.5,639.459,222.843,639.133,222.626Z" transform="translate(3788.462 602)"/><path class="u" d="M665.981,227.962c5.214-.976,15.646,12.932.215,17.93C647.833,251.761,661.415,228.832,665.981,227.962Zm19.777-13.8c-1.088,1.412-3.37,3.367-5,3.8,8.039-9.562-3.37-16.19-10.432-15.972-2.064.109-3.8.868-4.237,2.932-1.088,5.216,3.584,11.3,1.955,19.127-1.088,5.325,16.625,10.541,19.886-1.305C688.584,220.681,688.366,216.227,685.758,214.162ZM642.4,237.524c10.976,7.933,19.124-6.845,17.822-8.474-2.934-3.478-.87-9.021,5.216-8.151,3.152.435-.979-17.5-10.759-17.5-9.127,0-22.494,16.516-6.193,21.841-3.261.109-7.607-.218-10.106-1.3C636.1,226.224,637.4,233.831,642.4,237.524Z" transform="translate(3789.867 603.509)"/></g></svg>