<svg xmlns="http://www.w3.org/2000/svg" width="247.004" height="91.172" viewBox="0 0 247.004 91.172"><defs><style>.a{fill:#3f3f3f;}</style></defs><g transform="translate(-257.166 -70.978)"><g transform="translate(257.166 70.978)"><path class="a" d="M328.038,101.411h.159a1.9,1.9,0,0,0,1.562-.821L343.2,81.063l5.838,30.339a1.892,1.892,0,0,0,1.858,1.535,2.081,2.081,0,0,0,.36-.034,1.9,1.9,0,0,0,1.5-2.218l-6.622-34.413a1.879,1.879,0,0,0-1.538-1.5,6.068,6.068,0,0,0-.842-.018,1.866,1.866,0,0,0-1.361.8L328.038,96.413,313.683,75.558a1.861,1.861,0,0,0-1.361-.8,6.068,6.068,0,0,0-.842.018,1.879,1.879,0,0,0-1.538,1.5l-6.622,34.413a1.9,1.9,0,0,0,1.5,2.218,2.081,2.081,0,0,0,.36.034,1.892,1.892,0,0,0,1.858-1.535l5.838-30.339,13.439,19.527a1.9,1.9,0,0,0,1.562.821Z" transform="translate(-162.548 -63.242)"/><path class="a" d="M302.753,70.978a45.586,45.586,0,1,0,45.584,45.584A45.587,45.587,0,0,0,302.753,70.978Zm16.158,11.91,1.874,4.3-2.975.568Zm-36.03,37.635-1.159,9.493L280.288,123Zm-5.725,16.417,2.46-13.32.723,3.418Zm6.915-16.607,8.019,3.644L280.44,149.565Zm5.975,10.821,3.015-6.729,5.343,2.5Zm-4.785-11.327,14.342-4.452-.919,10.476Zm19.707,29.7L299.6,127.307l.9-11.154,5.9,10.784Zm6.521-28.749-4.4,5.331L300.9,114.573l9.155-15.792,2.707,7.119Zm1.932-15.966-2.628-6.973,6.488-8.5,2.276,1.883Zm4.449-16.222,5.893-1.1,3.345,4.519-1.98,2.481Zm8.017,6.5L327.7,92.83l1.059,1.962Z" transform="translate(-257.166 -70.978)"/><path class="a" d="M314.47,113.739l-5.758-7.412.458-.128c3.747-1.047,5.813-3.625,5.813-7.26A7.05,7.05,0,0,0,313,93.882a10.019,10.019,0,0,0-7.19-2.545h-9.155a1.714,1.714,0,0,0-1.7,1.73v21.84a1.716,1.716,0,0,0,1.7,1.73,1.733,1.733,0,0,0,1.733-1.73v-7.946h6.521l.1.122,6.68,8.682a1.921,1.921,0,0,0,1.565.873,1.688,1.688,0,0,0,1.221-2.9Zm-16.085-9.93V94.556H305.6c3.763,0,5.92,1.66,5.92,4.556,0,2.853-2.338,4.7-5.954,4.7Z" transform="translate(-179.639 -29.21)"/><path class="a" d="M323.744,91.337h-15.2a1.714,1.714,0,0,0-1.7,1.73V114.73a1.717,1.717,0,0,0,1.7,1.733h15.374a1.593,1.593,0,1,0,0-3.186h-13.64v-7.891h11.892a1.6,1.6,0,0,0,1.6-1.593,1.617,1.617,0,0,0-1.6-1.593H310.277V94.523h13.467a1.593,1.593,0,1,0,0-3.186Z" transform="translate(-155.242 -29.21)"/><path class="a" d="M341.938,114.318l-9.909-21.63A2.122,2.122,0,0,0,330,91.245h-.14a2.153,2.153,0,0,0-2.054,1.419L317.9,114.339a1.95,1.95,0,0,0-.217.894,1.6,1.6,0,0,0,1.6,1.593,1.713,1.713,0,0,0,1.63-1.132l2.466-5.505h12.981l.085.186,2.374,5.233a1.822,1.822,0,0,0,1.672,1.218,1.665,1.665,0,0,0,1.663-1.663A2.189,2.189,0,0,0,341.938,114.318ZM324.758,107l5.105-11.355L334.968,107Z" transform="translate(-133.015 -29.399)"/><path class="a" d="M330.848,114.784a1.714,1.714,0,0,0,1.7,1.73h7.129c7.727,0,13.332-5.313,13.332-12.633,0-7.238-5.606-12.493-13.332-12.493h-7.129a1.717,1.717,0,0,0-1.7,1.733Zm3.43-20.174h5.4c5.768,0,9.8,3.869,9.8,9.411,0,5.459-4.028,9.274-9.8,9.274h-5.4Z" transform="translate(-106.002 -29.105)"/><path class="a" d="M296.957,113.2a2.045,2.045,0,0,1-2.045-2.048V76.74a2.045,2.045,0,0,1,4.089,0v34.413A2.045,2.045,0,0,1,296.957,113.2Z" transform="translate(-179.727 -63.352)"/><rect class="a" width="22.152" height="3.924" transform="translate(212.07 35.567)"/><path class="a" d="M342.582,79.987l14.745,32a1.9,1.9,0,0,0,1.721,1.1,1.868,1.868,0,0,0,.79-.174,1.893,1.893,0,0,0,.928-2.511L344.913,76a2.709,2.709,0,0,0-4.654,0l-15.853,34.4a1.89,1.89,0,0,0,.928,2.511,1.869,1.869,0,0,0,.79.174,1.9,1.9,0,0,0,1.721-1.1Z" transform="translate(-119.576 -63.389)"/></g></g></svg>