<svg xmlns="http://www.w3.org/2000/svg" width="40.382" height="55.526" viewBox="0 0 40.382 55.526"><defs><style>.a{fill:#7f7f80;}</style></defs><g transform="translate(-69.819)"><g transform="translate(69.819)"><g transform="translate(0)"><path class="a" d="M105.153,22.715V15.143a15.143,15.143,0,1,0-30.287,0v7.572a5.048,5.048,0,0,0-5.048,5.048V50.478a5.048,5.048,0,0,0,5.048,5.048h30.287a5.048,5.048,0,0,0,5.048-5.048V27.763A5.048,5.048,0,0,0,105.153,22.715ZM77.391,15.143a12.62,12.62,0,1,1,25.239,0v7.572H77.391Zm30.287,35.335A2.524,2.524,0,0,1,105.153,53H74.867a2.524,2.524,0,0,1-2.524-2.524V27.763a2.524,2.524,0,0,1,2.524-2.524h30.287a2.524,2.524,0,0,1,2.524,2.524V50.478Z" transform="translate(-69.819)"/><path class="a" d="M217.657,303.823a5.029,5.029,0,0,0-7.071,7.127,3.786,3.786,0,1,0,7.483,0A5.048,5.048,0,0,0,217.657,303.823Zm-1.1,5.017a2.524,2.524,0,0,1-.924.924v1.615a1.262,1.262,0,0,1-2.524,0v-1.615a2.524,2.524,0,1,1,3.448-.924Z" transform="translate(-194.18 -269.734)"/></g></g></g></svg>