<svg xmlns="http://www.w3.org/2000/svg" width="864" height="591" viewBox="0 0 864 591"><defs><style>.a{fill:#f7f7f7;}.b{opacity:0.997;}.c{fill:#515151;}.d{fill:none;stroke:#474747;stroke-miterlimit:10;}</style></defs><g transform="translate(-736 -2731)"><rect class="a" width="864" height="591" transform="translate(736 2731)"/><g class="b" transform="translate(809.463 1835.985)"><g transform="translate(288.422 1097.565)"><path class="c" d="M293.289,1091.9a1.55,1.55,0,0,0-.888,1,8.2,8.2,0,0,0-.24,2.339v21.215a8.171,8.171,0,0,0,.24,2.337,1.55,1.55,0,0,0,.888,1,6.519,6.519,0,0,0,2.088.334v.856q-2.382-.123-6.722-.124-4.575,0-6.766.124v-.856a7.5,7.5,0,0,0,2.244-.334,1.6,1.6,0,0,0,.962-1,7.569,7.569,0,0,0,.26-2.337V1094.2l-10.3,26.852h-.688l-11.547-27.583v20.506a18.947,18.947,0,0,0,.26,3.717,2.589,2.589,0,0,0,1.118,1.712,6.623,6.623,0,0,0,2.776.73v.856q-1.649-.123-4.636-.124-2.359,0-3.716.124v-.856a4.222,4.222,0,0,0,2.067-.721,2.763,2.763,0,0,0,.909-1.639,16.65,16.65,0,0,0,.24-3.276v-19.252a8.2,8.2,0,0,0-.24-2.339,1.55,1.55,0,0,0-.888-1,6.574,6.574,0,0,0-2.088-.335v-.856q1.358.126,3.716.125,3.968,0,6.766-.125l8.624,20.8,7.894-20.671h3.027q4.342,0,6.722-.125v.856A6.572,6.572,0,0,0,293.289,1091.9Z" transform="translate(-258.585 -1090.626)"/><path class="c" d="M306.411,1119.492a2.415,2.415,0,0,0,1.432.679v.856q-2.55-.122-6.494-.124-4.384,0-6.515.124v-.856a6.354,6.354,0,0,0,2.307-.4,1.191,1.191,0,0,0,.7-1.172,5.909,5.909,0,0,0-.5-2.023l-2.569-7.017H285.48l-1.149,2.965a14.121,14.121,0,0,0-1.17,4.741,2.475,2.475,0,0,0,.951,2.223,5.382,5.382,0,0,0,2.851.679v.856q-2.924-.122-5.327-.124-2.005,0-3.279.124v-.856q2.151-.4,3.718-4.49l9.731-25.014q.687.063,1.481.063c.531,0,1.023-.021,1.483-.062l10.377,26.77A5.21,5.21,0,0,0,306.411,1119.492Zm-16.193-22.29-4.427,11.5h8.666Z" transform="translate(-240.794 -1090.666)"/><path class="c" d="M319.7,1094.489q4.145,3.779,4.146,11.026a16,16,0,0,1-2.025,8.154,13.589,13.589,0,0,1-5.857,5.408,20.288,20.288,0,0,1-9.136,1.909c-.7,0-1.559-.019-2.59-.062q-3.757-.063-3.653-.061-4.407,0-6.578.124v-.856a6.42,6.42,0,0,0,2.079-.334,1.549,1.549,0,0,0,.877-1,8.167,8.167,0,0,0,.24-2.337v-21.215a8.2,8.2,0,0,0-.24-2.339,1.545,1.545,0,0,0-.888-1,6.492,6.492,0,0,0-2.067-.335v-.856q2.736.146,5.157.146l1.337-.021,1.837-.042q3.466-.085,4.887-.084Q315.553,1090.71,319.7,1094.489Zm-14.521-2.7a1.671,1.671,0,0,0-.918,1.074,7.9,7.9,0,0,0-.253,2.3v21.382a7.877,7.877,0,0,0,.253,2.307,1.671,1.671,0,0,0,.928,1.065,5.236,5.236,0,0,0,2.037.3,8.82,8.82,0,0,0,5.627-1.66,9.1,9.1,0,0,0,3-4.843,30.153,30.153,0,0,0,.9-8.029,27.759,27.759,0,0,0-.96-8,8.75,8.75,0,0,0-3.069-4.655,9.146,9.146,0,0,0-5.534-1.546A5.085,5.085,0,0,0,305.177,1091.786Z" transform="translate(-226.686 -1090.626)"/><path class="c" d="M334.977,1120.987q-2.9-.123-9.794-.124-9.271,0-13.928.124v-.856a6.4,6.4,0,0,0,2.077-.334,1.552,1.552,0,0,0,.879-1,8.171,8.171,0,0,0,.24-2.337v-21.215a8.2,8.2,0,0,0-.24-2.339,1.55,1.55,0,0,0-.888-1,6.492,6.492,0,0,0-2.067-.335v-.856q4.655.126,13.928.125,6.307,0,8.936-.125-.291,3.528-.291,6.327a25.767,25.767,0,0,0,.125,2.9h-.981a16.054,16.054,0,0,0-1.316-4.9,5.773,5.773,0,0,0-2.286-2.579,6.964,6.964,0,0,0-3.415-.772H324.2a6.3,6.3,0,0,0-1.911.209,1.283,1.283,0,0,0-.814.834,6.593,6.593,0,0,0-.221,2v10.586h1.379a3.953,3.953,0,0,0,3.467-1.67,10.378,10.378,0,0,0,1.628-3.967h.983q-.148,2.108-.146,4.029l.019,2.046q0,2.171.251,6.076h-.979q-.839-5.659-5.222-5.659h-1.379v10.775a6.582,6.582,0,0,0,.221,2,1.279,1.279,0,0,0,.814.835,6.251,6.251,0,0,0,1.911.209h2.109a6.134,6.134,0,0,0,5.971-3.737,18.1,18.1,0,0,0,1.546-5.366h.981q-.126,1.378-.125,3.592Q334.684,1117.98,334.977,1120.987Z" transform="translate(-211.132 -1090.626)"/><path class="c" d="M280.05,1133.471a8.17,8.17,0,0,1,3.476,2.735,6.168,6.168,0,0,1,1.074,3.476,7.3,7.3,0,0,1-1.409,4.522,8.513,8.513,0,0,1-4.06,2.818,18.812,18.812,0,0,1-6.329.951l-2.065-.044q-2.841-.083-5.555-.082-4.407,0-6.578.125v-.857a6.456,6.456,0,0,0,2.077-.333,1.555,1.555,0,0,0,.879-1,8.175,8.175,0,0,0,.24-2.337v-21.215a8.2,8.2,0,0,0-.24-2.339,1.55,1.55,0,0,0-.888-1,6.454,6.454,0,0,0-2.067-.333v-.858q2.171.126,6.494.126.793,0,4.8-.063l1.923-.021a17.468,17.468,0,0,1,5.815.846,7.69,7.69,0,0,1,3.56,2.358,5.535,5.535,0,0,1,1.189,3.52,5.967,5.967,0,0,1-.919,3.111,8.254,8.254,0,0,1-2.851,2.7,13.949,13.949,0,0,1-4.769,1.7v.083A18.107,18.107,0,0,1,280.05,1133.471Zm-10.472-14.618a1.645,1.645,0,0,0-.763,1.076,9.458,9.458,0,0,0-.209,2.3v9.668h1.839a4.133,4.133,0,0,0,3.9-1.9,10.043,10.043,0,0,0,1.107-5.074,9.184,9.184,0,0,0-.991-4.792,3.5,3.5,0,0,0-3.206-1.575A3.631,3.631,0,0,0,269.578,1118.853Zm6.485,26.237a9.165,9.165,0,0,0,1.44-5.594,7.06,7.06,0,0,0-1.7-5.118q-1.7-1.751-5.4-1.753h-1.8v10.817a8.242,8.242,0,0,0,.23,2.275,1.535,1.535,0,0,0,.837,1,4.865,4.865,0,0,0,1.879.272A5.3,5.3,0,0,0,276.062,1145.09Z" transform="translate(-258.605 -1066.295)"/><path class="c" d="M298.95,1117.684v.856q-1.983.773-4.092,4.929l-5.053,10.022v9.961a8.171,8.171,0,0,0,.24,2.337,1.553,1.553,0,0,0,.888,1,6.5,6.5,0,0,0,2.067.333v.857q-2.276-.125-6.578-.125-4.53,0-6.639.125v-.857a6.6,6.6,0,0,0,2.088-.333,1.55,1.55,0,0,0,.886-1,8.159,8.159,0,0,0,.242-2.337v-7.266l-8.229-15.223q-1.315-2.379-2.484-2.381v-.9q2.5.208,5.053.209,3.968,0,8.038-.209v.9a8.469,8.469,0,0,0-2.379.262,1.021,1.021,0,0,0-.856,1.012,2.17,2.17,0,0,0,.27.939l6.515,12.487,3.32-6.639a12.928,12.928,0,0,0,1.691-5.262q0-2.736-3.571-2.841v-.856q2.924.126,5.325.126Q297.678,1117.81,298.95,1117.684Z" transform="translate(-246.268 -1066.305)"/><path class="c" d="M284.3,1148.458q4.145,3.78,4.146,11.026a16,16,0,0,1-2.025,8.154,13.6,13.6,0,0,1-5.859,5.408,20.283,20.283,0,0,1-9.134,1.909q-1.044,0-2.59-.063-3.757-.063-3.653-.063-4.407,0-6.578.125v-.856a6.46,6.46,0,0,0,2.077-.335,1.552,1.552,0,0,0,.879-1,8.2,8.2,0,0,0,.24-2.339V1149.21a8.193,8.193,0,0,0-.24-2.337,1.553,1.553,0,0,0-.888-1,6.567,6.567,0,0,0-2.067-.333v-.856q2.736.145,5.157.146l1.337-.021,1.837-.042q3.466-.086,4.887-.084Q280.153,1144.68,284.3,1148.458Zm-14.521-2.7a1.682,1.682,0,0,0-.92,1.076,7.973,7.973,0,0,0-.251,2.3v21.382a7.955,7.955,0,0,0,.251,2.307,1.678,1.678,0,0,0,.93,1.065,5.239,5.239,0,0,0,2.037.3,8.821,8.821,0,0,0,5.627-1.66,9.1,9.1,0,0,0,3-4.845,30.132,30.132,0,0,0,.9-8.029,27.674,27.674,0,0,0-.962-8,8.734,8.734,0,0,0-3.069-4.657,9.151,9.151,0,0,0-5.534-1.544A5.081,5.081,0,0,0,269.777,1145.754Z" transform="translate(-258.605 -1041.963)"/><path class="c" d="M302.36,1173.461a2.406,2.406,0,0,0,1.43.679V1175q-2.55-.125-6.494-.125-4.384,0-6.515.125v-.855a6.313,6.313,0,0,0,2.309-.4,1.188,1.188,0,0,0,.7-1.169,5.922,5.922,0,0,0-.5-2.023l-2.569-7.017h-9.292l-1.149,2.965a14.122,14.122,0,0,0-1.17,4.741,2.473,2.473,0,0,0,.951,2.223,5.392,5.392,0,0,0,2.851.679V1175q-2.924-.125-5.325-.125-2.005,0-3.279.125v-.855q2.151-.4,3.716-4.49l9.731-25.015q.687.063,1.481.063c.531,0,1.023-.021,1.483-.062l10.377,26.77A5.2,5.2,0,0,0,302.36,1173.461Zm-16.195-22.29-4.425,11.505h8.666Z" transform="translate(-244.447 -1042.003)"/><path class="c" d="M316.056,1146.256a2.742,2.742,0,0,0-.907,1.639,16.487,16.487,0,0,0-.242,3.278v23.866c-.209-.015-.55-.021-1.023-.021-.5,0-.89.006-1.17.021l-18.541-23.512v16.413a18.774,18.774,0,0,0,.261,3.716,2.582,2.582,0,0,0,1.118,1.713,6.607,6.607,0,0,0,2.777.73v.856q-1.649-.125-4.636-.125-2.359,0-3.716.125v-.856a4.231,4.231,0,0,0,2.067-.721,2.769,2.769,0,0,0,.909-1.639,16.658,16.658,0,0,0,.24-3.277V1149.21a8.192,8.192,0,0,0-.24-2.337,1.553,1.553,0,0,0-.888-1,6.65,6.65,0,0,0-2.088-.333v-.856q1.358.125,3.716.125,2.194,0,3.7-.125l16.537,20.4V1151.7a18.929,18.929,0,0,0-.261-3.716,2.594,2.594,0,0,0-1.116-1.714,6.651,6.651,0,0,0-2.778-.73v-.856q1.669.125,4.636.125,2.379,0,3.716-.125v.856A4.232,4.232,0,0,0,316.056,1146.256Z" transform="translate(-230.319 -1041.963)"/><path class="c" d="M329.9,1174.956q-2.9-.125-9.794-.125-9.271,0-13.928.125v-.856a6.485,6.485,0,0,0,2.079-.335,1.549,1.549,0,0,0,.877-1,8.2,8.2,0,0,0,.24-2.339V1149.21a8.192,8.192,0,0,0-.24-2.337,1.548,1.548,0,0,0-.888-1,6.568,6.568,0,0,0-2.067-.333v-.856q4.655.125,13.928.125,6.307,0,8.938-.125-.294,3.528-.293,6.327a25.782,25.782,0,0,0,.126,2.9H327.9a16.058,16.058,0,0,0-1.316-4.9,5.762,5.762,0,0,0-2.286-2.578,6.941,6.941,0,0,0-3.415-.772h-1.753a6.384,6.384,0,0,0-1.911.207,1.29,1.29,0,0,0-.814.837,6.6,6.6,0,0,0-.219,2V1159.3h1.379a3.957,3.957,0,0,0,3.465-1.67,10.376,10.376,0,0,0,1.628-3.969h.983q-.148,2.111-.146,4.031l.019,2.046q0,2.171.253,6.076h-.981q-.836-5.659-5.22-5.659h-1.379v10.775a6.6,6.6,0,0,0,.219,2,1.283,1.283,0,0,0,.814.835,6.31,6.31,0,0,0,1.911.209h2.109a6.142,6.142,0,0,0,5.971-3.737,18.1,18.1,0,0,0,1.546-5.367h.981q-.126,1.378-.125,3.592Q329.611,1171.95,329.9,1174.956Z" transform="translate(-215.706 -1041.963)"/><path class="c" d="M334.27,1144.822a13.047,13.047,0,0,1,2.672,1.223,3.448,3.448,0,0,0,1.441.6.656.656,0,0,0,.6-.437,5.463,5.463,0,0,0,.357-1.441h.979q-.228,2.65-.228,9.752h-.981a13.5,13.5,0,0,0-1.023-4.418,8.63,8.63,0,0,0-2.474-3.383,5.783,5.783,0,0,0-3.769-1.3,5.4,5.4,0,0,0-2.444.532,3.974,3.974,0,0,0-1.66,1.514,4.384,4.384,0,0,0-.6,2.318,4.961,4.961,0,0,0,.667,2.611,7.816,7.816,0,0,0,1.848,2.046q1.181.938,3.644,2.59.71.437,1.232.814a40.975,40.975,0,0,1,3.946,2.9,10.415,10.415,0,0,1,2.37,2.9,7.829,7.829,0,0,1,.909,3.843,7.4,7.4,0,0,1-1.421,4.593,8.515,8.515,0,0,1-3.82,2.809,14.8,14.8,0,0,1-5.366.93,15.356,15.356,0,0,1-3.946-.428,14.032,14.032,0,0,1-2.925-1.16,3.167,3.167,0,0,0-1.461-.6.655.655,0,0,0-.6.447,5.176,5.176,0,0,0-.335,1.432h-.981q.165-2.673.167-11.547h.981a16.546,16.546,0,0,0,2.13,7.757,6.186,6.186,0,0,0,5.657,2.976,6.556,6.556,0,0,0,2.725-.544,4.282,4.282,0,0,0,1.89-1.618,4.749,4.749,0,0,0,.688-2.621,5.832,5.832,0,0,0-.783-3.007,9.148,9.148,0,0,0-2.109-2.432,38.494,38.494,0,0,0-3.516-2.518,44.3,44.3,0,0,1-4.1-2.87,10.689,10.689,0,0,1-2.527-2.946,7.659,7.659,0,0,1-.991-3.935,7.027,7.027,0,0,1,1.316-4.343,7.835,7.835,0,0,1,3.486-2.609,12.931,12.931,0,0,1,4.781-.857A12.054,12.054,0,0,1,334.27,1144.822Z" transform="translate(-202.429 -1042.221)"/></g><g transform="translate(248.002 1256.243)"><g transform="translate(115.199)"><path class="c" d="M344.378,1188c-.274-.386.2-.869.517-.643a.407.407,0,0,1,.2-.057c.2,0,.382,0,.565.011a.622.622,0,0,0-.312-.266c-.511-.1-1.071.03-1.535-.318a.091.091,0,0,0-.08-.006c-.418.245-.812-.057-1.217-.072-.62-.023-1.232-.192-1.852-.253-.5-.05-1.012-.017-1.514-.057a.628.628,0,0,1-.369-.244c-.032-.038.089-.192.12-.3.11-.376.466-.506.719-.743.331-.314.821-.487.936-1.01h0a.407.407,0,0,1-.228-.705,28.933,28.933,0,0,0,2.3-2.1,9.358,9.358,0,0,0,2.187-2.737.425.425,0,0,1,.77-.03c.027-.046.055-.091.082-.137.257-.462.939-.006.685.454-.12.215-.257.417-.392.618a.869.869,0,0,0,.552-.774.659.659,0,0,1,.078-.27c.434-.612-.278-1.753-.907-1.9-.664-.15-1.35-.209-2.016-.356a5.386,5.386,0,0,0-2.463.021c-.331.078-.686.059-1.008.158a4.065,4.065,0,0,0-.759.426c-.12-.434-.434-.274-.706-.217-.392.082-.778.2-1.171.276-.327.065-.669.067-.991.147a1.864,1.864,0,0,0-.824.344.793.793,0,0,1-.747.242.7.7,0,0,0-.325-.006c-.394.145-.787.293-1.166.472a8.322,8.322,0,0,0-1,.555.5.5,0,0,0-.139.359c0,.044.169.089.251.148.188.137.447.244.542.432a.519.519,0,0,0,.745.3c.523-.2,1.126-.164,1.59-.55.084-.072.243-.047.363-.084.181-.055.356-.124.534-.186.126-.036.283.013.416-.025.422-.124.827-.31,1.253-.413.321-.078.673-.032,1-.1.512-.112,1.008-.293,1.518-.417.2-.047.455.053.616-.036a2.948,2.948,0,0,1,1.135-.322,10.124,10.124,0,0,0,1.867-.165c.106-.032.337.278.474.458.023.03-.146.2-.221.312-.131.194-.259.392-.388.588-.084.129-.15.354-.255.374a1.514,1.514,0,0,0-1.149.824,1.2,1.2,0,0,1-.785.481,3.071,3.071,0,0,0-.985.694c-.681.6-1.341,1.219-2.01,1.829-.03.029-.053.071-.087.084a1.9,1.9,0,0,0-1.274,1.16c-.023.07-.106.125-.173.175-.5.381-.521,1.012-.78,1.517-.053.1.021.3.082.436a1.021,1.021,0,0,0,.278.4,2.207,2.207,0,0,1,.858.837c.1.215.654.215,1.029.32v-.012a5.956,5.956,0,0,1-.6-.143c-.508-.152-.242-.93.264-.778a8.918,8.918,0,0,0,3.455.143c.521-.049.7.753.171.8l-.088.01.025,0a4.659,4.659,0,0,0,1.386.034c.124-.008.259-.11.361-.08a11.035,11.035,0,0,0,1.915.6,2.91,2.91,0,0,0-.31-.1C344.992,1188.328,344.634,1188.357,344.378,1188Z" transform="translate(-266.883 -1172.421)"/><path class="c" d="M337.479,1187.827l.485-.443c-.169.112-.34.224-.51.334Z" transform="translate(-262.288 -1162.135)"/><path class="c" d="M339.54,1182.727c.287.217.578.43.9.67l.051-.207a5.121,5.121,0,0,0-1.09-.6C339.449,1182.624,339.49,1182.691,339.54,1182.727Z" transform="translate(-260.531 -1166.458)"/><path class="c" d="M336.115,1188.985a1.059,1.059,0,0,0,.264-.1c.449-.264.863-.586,1.308-.854a1.334,1.334,0,0,0,.365-.263c-.641.413-1.286.822-1.938,1.219Z" transform="translate(-263.496 -1161.791)"/><path class="c" d="M338.361,1187.186c.065-.057.128-.12.188-.184-.181.124-.363.244-.544.365A1.01,1.01,0,0,0,338.361,1187.186Z" transform="translate(-261.792 -1162.48)"/><path class="c" d="M352.878,1183.2c-.055-.146-.133-.344-.247-.4a.8.8,0,0,1-.053.953c-.439.546-.9.188-1.28-.175l.3,1.038c-.029.036-.072.089-.112.145-.029.04-.059.08-.089.12.019-.015.038-.031.059-.046.1-.072.477-.276.479-.281.12-.515.9-.247.778.264a.7.7,0,0,1-.392.447,5.193,5.193,0,0,0-.814.584c-.057.051-.11.106-.167.158a.356.356,0,0,1-.143.3l-1.181.97a.41.41,0,0,1-.669-.26,3.6,3.6,0,0,1-.647.426,2.284,2.284,0,0,0-.43.363c-.076.067-.133.154-.213.213-.224.167-.458.323-.685.487-.177.127-.339.28-.525.388-.616.357-1.246.7-1.864,1.053-.173.1-.31.262-.485.358-.692.371-1.394.724-2.086,1.091-.184.1-.346.236-.529.339-.687.382-1.373.768-2.071,1.13-.378.194-.782.336-1.175.5-.249.1-.5.2-.77.3l.175.186a6.861,6.861,0,0,0-1.13.276,14.32,14.32,0,0,1-1.692.848c-.905.261-1.791.594-2.683.9-.065.023-.122.068-.186.093-.555.2-1.114.39-1.666.6-.492.184-1.17-.042-1.443.649-.019.047-.205.019-.312.04-.268.049-.532.107-.8.162l.021.122c.54-.2,1.054.677,1.584-.017.335.411.335.409.913.339.07-.008.141.008.209,0,.544-.076,1.09-.152,1.632-.24.388-.061.757-.261,1.169-.052.106.053.295-.053.451-.089l-.038-.11a9.7,9.7,0,0,1-1.061.05c-.531-.008-.479-.827.048-.822,2.849.032,5.233-1.356,7.468-2.982.424-.308.974.3.546.614q-.727.531-1.476,1.012a8.459,8.459,0,0,1,.945-.476,6.753,6.753,0,0,0,1.974-1.076c.1-.078.259-.072.39-.11.057-.017.116-.031.175-.044a.434.434,0,0,1-.141-.791c1.681-1.029,3.334-2.1,4.946-3.231,1.337-.941,3.429-2.016,4.111-3.587.209-.481.991-.22.778.265a3.959,3.959,0,0,1-.209.407c.017-.006.03-.013.048-.019.087-.03.167-.2.182-.314.057-.466.318-.856.363-1.354A3.674,3.674,0,0,0,352.878,1183.2Z" transform="translate(-270.694 -1166.272)"/><path class="c" d="M328.019,1178.634a4.283,4.283,0,0,1,.47-.367c.209-.12.283-.224.12-.418-.538.333-1.033.778-1.538,1.145A1.254,1.254,0,0,0,328.019,1178.634Z" transform="translate(-271.651 -1170.733)"/><path class="c" d="M326.153,1178.176c.017.017.036.03.053.047l.065-.032C326.233,1178.187,326.195,1178.184,326.153,1178.176Z" transform="translate(-272.478 -1170.438)"/><path class="c" d="M326.765,1178.069c.181-.118.363-.238.544-.358A1.266,1.266,0,0,0,326.765,1178.069Z" transform="translate(-271.926 -1170.857)"/><path class="c" d="M325.724,1185.608a12.143,12.143,0,0,1,1.594-.8c.165-.066.262-.129.3-.23a11.835,11.835,0,0,0-3.128,1.694A3.735,3.735,0,0,0,325.724,1185.608Z" transform="translate(-273.981 -1164.665)"/><path class="c" d="M321.355,1188.054l.209-.067a.418.418,0,0,1-.494-.563,2.456,2.456,0,0,1-.991.255c-.154,0-.3.133-.46.188-.173.061-.371.175-.525.135-.224-.059-.584.264-.641-.114-.029-.188.268-.428.426-.639s.329-.422.494-.635l-.1-.1a2.2,2.2,0,0,0-.274.048,6.619,6.619,0,0,0-.806.249,2.492,2.492,0,0,0-.962.519c-.137.166.01.578.049.877.029.217.091.432.12.561.608.272,1.168.5,1.7.766a1.415,1.415,0,0,0,1.508-.2.738.738,0,0,1,.266-.166c.485-.143.981-.249,1.459-.415.242-.083.475-.285.7-.384q-.756.248-1.512.487C321.022,1189.021,320.857,1188.214,321.355,1188.054Z" transform="translate(-280.577 -1162.918)"/><path class="c" d="M332.6,1178.319c.428-.3.977.308.548.614l-.049.038a.367.367,0,0,1-.108.612,3.537,3.537,0,0,0-.373.185l.01.009c.8-.146,1.035-.869,1.4-1.407.428-.635-.093-1.291-.179-1.941,0-.029-.057-.065-.093-.074-.725-.183-1.443-.411-2.179-.532-.761-.124-1.54-.146-2.311-.205a.389.389,0,0,0-.28.063c-.2.236-.445.166-.688.163a1.573,1.573,0,0,0-.411.042c-.6.164-1.2.333-1.788.516a5.871,5.871,0,0,1-.643.257c-.323.053-.669-.013-.987.061-.565.132-1.114.329-1.67.5a2.827,2.827,0,0,0,.116.711,2.3,2.3,0,0,0,.5.745c.091.086.354-.013.538-.025a1.1,1.1,0,0,0,.209,0c.3-.076.6-.162,1.038-.278a4.423,4.423,0,0,0,.774-.038c.861-.167,1.719-.363,2.575-.557.685-.156,1.365-.327,2.048-.489a.229.229,0,0,1,.156,0,1.167,1.167,0,0,0,1.135.067,1.771,1.771,0,0,1,.31,1.243c-.006.067-.285.09-.418.166-.078.046-.107.167-.175.241-.089.1-.181.2-.276.289.076-.057.175-.114.316-.2A10.166,10.166,0,0,1,332.6,1178.319Z" transform="translate(-275.501 -1172.747)"/><path class="c" d="M327.193,1182.784c-.038.057-.065.1-.093.152.053-.052.106-.1.16-.156A.254.254,0,0,1,327.193,1182.784Z" transform="translate(-271.624 -1166.287)"/><path class="c" d="M324.18,1185.822a.849.849,0,0,0,.188-.154c-.118.084-.236.165-.354.247Z" transform="translate(-274.406 -1163.683)"/><path class="c" d="M328.652,1185.107c-2.993,1.453-6.013,2.854-9.1,4.108a38.835,38.835,0,0,0,7.215-2.864A20.751,20.751,0,0,0,328.652,1185.107Z" transform="translate(-278.429 -1164.189)"/><path class="c" d="M325.52,1184.241a6.344,6.344,0,0,0-1.171.542l-.027.084,1.554-.681A2.2,2.2,0,0,0,325.52,1184.241Z" transform="translate(-274.129 -1165.019)"/><path class="c" d="M328.376,1179.615c-1.377.856-2.763,1.7-4.17,2.5a.414.414,0,0,1-.6-.389,1.736,1.736,0,0,1,.255-.757l-.072-.029c-.291.32-.561.607-.818.907a.859.859,0,0,0-.148.321,5.346,5.346,0,0,0-.116.6.51.51,0,0,0,.015.274,1.265,1.265,0,0,0,1.088.65c.253,0,.506.034.759.04.941.021,1.885.01,2.824.065.671.04,1.339.171,2.008.251a5,5,0,0,0,.536.014l.009-.11c.118.162.236.323.356.485.6-.314,1.894.542,1.993,1.35-.413-.128-.62.108-.707.447a.91.91,0,0,1-.05.127.418.418,0,0,1,.432.69c-.388.39-.787.759-1.2,1.116a.353.353,0,0,1-.091.47c-.27.205-.544.4-.818.588a.468.468,0,0,1,.122.4c.063-.036.125-.07.186-.106a7.027,7.027,0,0,0,.917-.563,7.154,7.154,0,0,0,1.217-1.141c.346-.453,1.111-.654.947-1.445,0-.025.048-.061.07-.092a1.778,1.778,0,0,0-.356-2.215,5.56,5.56,0,0,0-2.261-1.1c-.962-.171-1.909-.43-2.872-.6-.664-.116-1.341-.141-2.012-.207a2.635,2.635,0,0,1,.742-.711c.886-.544,1.789-1.058,2.679-1.6.16-.1.272-.274.432-.378a1.973,1.973,0,0,1,.656-.336.589.589,0,0,0,.521-.628q-.958.664-1.957,1.261A.356.356,0,0,1,328.376,1179.615Z" transform="translate(-275.593 -1170.139)"/><path class="c" d="M320.448,1187.685a1.936,1.936,0,0,0,1.289-.468q-.7.245-1.4.475A.455.455,0,0,1,320.448,1187.685Z" transform="translate(-277.725 -1162.286)"/><path class="c" d="M313.737,1177.22a4.749,4.749,0,0,0,.812-.074c.135-.032.346-.215.337-.312a.708.708,0,0,1,0-.167c-.462.171-.926.357-1.386.572l.24.089Z" transform="translate(-283.89 -1171.799)"/><path class="c" d="M316.552,1179.764c.295-.418.582-.841.873-1.263a.915.915,0,0,0-.517.538,5.926,5.926,0,0,1-.907,1.1l-.023.034c.175-.139.354-.274.542-.4A.19.19,0,0,1,316.552,1179.764Z" transform="translate(-281.653 -1170.145)"/><path class="c" d="M315.58,1179.814c.061-.059.125-.115.188-.175A.479.479,0,0,0,315.58,1179.814Z" transform="translate(-282.012 -1169.119)"/><path class="c" d="M314.093,1177c-.47.222-.936.466-1.394.724a3.712,3.712,0,0,1,.894-.205C313.986,1177.515,314.066,1177.3,314.093,1177Z" transform="translate(-284.609 -1171.499)"/><path class="c" d="M314.417,1176.435a2.478,2.478,0,0,0-.622.376c-.24.217-.681.192-.976.367a13,13,0,0,0-1.126.852c.829-.457,1.656-.915,2.463-1.432C314.244,1176.541,314.33,1176.49,314.417,1176.435Z" transform="translate(-285.516 -1172.008)"/><path class="c" d="M315.078,1180.368c-.015.044-.027.087-.04.133.122-.139.243-.274.365-.409C315.26,1180.172,315.118,1180.252,315.078,1180.368Z" transform="translate(-282.5 -1168.711)"/><path class="c" d="M310.924,1177.676l0,.251c.281-.162.565-.319.846-.475C311.474,1177.543,311.169,1177.612,310.924,1177.676Z" transform="translate(-286.21 -1171.091)"/><path class="c" d="M313.688,1176.19a1.193,1.193,0,0,1-.268.312,8.982,8.982,0,0,1,.831-.42A.361.361,0,0,0,313.688,1176.19Z" transform="translate(-283.959 -1172.408)"/><path class="c" d="M311.379,1185.259a.323.323,0,0,1,.068-.306l.07-.078h0l.01-.009c.291-.341.591-.668.89-1-.432.329-.61.9-1.158,1.01a1.066,1.066,0,0,0-.73.567,3.128,3.128,0,0,1,.635-.2A.39.39,0,0,1,311.379,1185.259Z" transform="translate(-286.568 -1165.309)"/><path class="c" d="M313.979,1181.527c.11-.1.221-.2.333-.3A.706.706,0,0,0,313.979,1181.527Z" transform="translate(-283.455 -1167.688)"/><path class="c" d="M312.408,1178.47c.515-.241,1-.54,1.5-.817a1.566,1.566,0,0,0,.194-.183l-.569-.062c-.643.365-1.267.759-1.862,1.173l.032-.013C311.929,1178.5,312.2,1178.565,312.408,1178.47Z" transform="translate(-285.535 -1171.132)"/><path class="c" d="M312.079,1183.8a.739.739,0,0,0-.114.173q.6-.65,1.221-1.28A6.68,6.68,0,0,0,312.079,1183.8Z" transform="translate(-285.271 -1166.361)"/><path class="c" d="M326.641,1178.973c-.015-.28.1-.6,0-.831-.061-.137-.43-.137-.658-.2a1.242,1.242,0,0,1-.12-.042c-.293-.12-.557-.123-.656.091l-.881-.051a2.13,2.13,0,0,1-.028-.3,1.728,1.728,0,0,0-1.381-1.8,5.252,5.252,0,0,0-2.594-.107c-.31.048-.688,0-.89.278.152-.036.306-.068.466-.093a.413.413,0,0,1,.481.42.42.42,0,0,1,.009.812c-.145.038-.293.088-.439.131a.132.132,0,0,1,.038,0c.413.167.763-.308,1.166-.076.04.023.131-.061.19-.052a5.491,5.491,0,0,1,1.219.236c.131.051.129.434.186.666l-.1.07.285.209a1.539,1.539,0,0,1-.205.2c.367-.042.7.428.34.692-.145.1-.291.2-.441.3a.375.375,0,0,1-.405.479,1.425,1.425,0,0,0-.774.11c-.483.181-.863-.511-.373-.732l.086-.036a1.6,1.6,0,0,0-1.014.361,7.283,7.283,0,0,1-2,.74c-.447.147-.867.367-1.3.544a1.8,1.8,0,0,1-.4.088c-.335.046-.677.061-1.006.135a.6.6,0,0,0-.342.282c-.2.38-.512.392-.873.371a.478.478,0,0,0-.388.15c-.207.4-.531.357-.907.384a5.03,5.03,0,0,0-1.1.384c-.116.038-.3.063-.371,0-.171-.16-.086-.31.093-.441.61-.443,1.223-.886,1.812-1.356.146-.116.194-.352.325-.5l.006-.006c-.179.131-.359.262-.533.4a4.92,4.92,0,0,1-1.177.958.4.4,0,0,1-.586-.388c-.616.508-.949.932-.8,1.183.272.454-.462.823-.732.373a.935.935,0,0,1-.108-.285.883.883,0,0,0,.325,1.223c.053.032.072.118.124.16.084.065.186.171.272.162.643-.063,1.287-.12,1.919-.245a6.884,6.884,0,0,0,1.076-.409,4.692,4.692,0,0,1,1.341-.477,6.68,6.68,0,0,0,1.521-.424c.513-.145.979-.449,1.481-.641.85-.325,1.706-.641,2.575-.915a3,3,0,0,1,1.71-.317.839.839,0,0,0,.728-.213c.287-.417.753-.449,1.122-.677a.28.28,0,0,1,.26.011.377.377,0,0,1,.072.257.407.407,0,0,0-.23.417c.131-.192.266-.38.4-.572a.411.411,0,0,1,.685.454q-.8,1.192-1.634,2.362l0,.023-.017.006c-.217.306-.43.612-.648.919a.4.4,0,0,1-.607.061,23.115,23.115,0,0,0-2.118,2.284.405.405,0,0,1-.112.156c-.029.025-.057.053-.086.078-.472.557-.939,1.1-1.426,1.592-1.662,1.66-3.356,3.292-5.036,4.935a.367.367,0,0,1-.43.061.382.382,0,0,1-.3.495,4.8,4.8,0,0,0-2.269,1.592,6.128,6.128,0,0,0-1.462,1.833h.367a.411.411,0,0,1,.373.732,2.044,2.044,0,0,1-.531.165,1.37,1.37,0,0,0,.622-.161c.312-.175.534-.567.854-.658.886-.251,1.4-1,2.12-1.453a1.256,1.256,0,0,0,.506-.447c.129-.3.291-.3.569-.291.133,0,.3-.224.405-.374.038-.053-.046-.194-.074-.295-.143.346-.327.407-.6.232a3.092,3.092,0,0,0-.565-.207.9.9,0,0,1,.144-.2c.28-.245.578-.469.854-.719.3-.276.582-.582.892-.854a17.711,17.711,0,0,0,1.77-1.54,22,22,0,0,1,2-2.014c.612-.548,1.2-1.126,1.782-1.7.3-.291.565-.61.844-.92.489-.542,1-1.071,1.461-1.634.4-.489.761-1.014,1.128-1.533a2.752,2.752,0,0,0,.215-.417,4.816,4.816,0,0,0,.726-.614,4.376,4.376,0,0,0,.413-.785,11.106,11.106,0,0,0,.694-.907C326.225,1179.884,326.676,1179.555,326.641,1178.973Z" transform="translate(-287.954 -1172.743)"/><path class="c" d="M306.018,1177.082l.04.108.067-.078Z" transform="translate(-290.633 -1171.425)"/><path class="c" d="M319.561,1174.107c-.312.1-.667-.068-.951.279a4.235,4.235,0,0,1-.879.614,1.085,1.085,0,0,0-.16.3.673.673,0,0,1-.1.217c.384-.361.774-.717,1.173-1.059s.949.268.548.614c-3.594,3.083-6.568,7-9.687,10.554l-.006.008h0l-.068.08a.341.341,0,0,1-.453.049,9.059,9.059,0,0,0-.6.687,36.461,36.461,0,0,1-2.78,3.155c-2.484,2.531-4.954,4.9-6.785,7.972-.27.454-.955,0-.685-.455.021-.034.042-.067.063-.1a.389.389,0,0,0-.222.548,1.819,1.819,0,0,0,.525.639c.394.363.69.281.941-.2a.536.536,0,0,1,.3-.28c.221-.038.356-.1.411-.335.023-.089.154-.15.217-.236a2.211,2.211,0,0,0,.3-.456,2.9,2.9,0,0,0,.055-.454c.04-.206.137-.323.339-.131.067.065.126.135.188.2.07-.16.106-.34.032-.424-.213-.243-.1-.449.042-.633.27-.361.561-.707.86-1.046.515-.578,1.023-1.164,1.567-1.713.673-.679,1.388-1.314,2.069-1.984.4-.4.766-.831,1.164-1.234.3-.3.639-.565.934-.871.635-.666,1.259-1.343,1.881-2.021q1.038-1.136,2.058-2.286c.048-.055,0-.192,0-.291l.078.071c.405-.379.837-.734,1.21-1.143.55-.6,1.042-1.257,1.59-1.862.631-.7,1.293-1.369,1.945-2.048.2-.207.358-.417.207-.607l.439-.93a1,1,0,0,0,1.05-.728c.029-.078.078-.2.124-.205.451-.03.512-.453.749-.7A1.436,1.436,0,0,0,319.561,1174.107Z" transform="translate(-297.928 -1174.107)"/><path class="c" d="M306.254,1177.023c.082-.093.165-.186.249-.28C306.338,1176.827,306.258,1176.9,306.254,1177.023Z" transform="translate(-290.421 -1171.729)"/><path class="c" d="M303.957,1179.484l.131-.118A.471.471,0,0,0,303.957,1179.484Z" transform="translate(-292.492 -1169.365)"/><path class="c" d="M304.246,1179.514a8.418,8.418,0,0,0,.7-.751A1.219,1.219,0,0,0,304.246,1179.514Z" transform="translate(-292.231 -1169.909)"/><path class="c" d="M304.808,1178.887l.544-.643A.962.962,0,0,0,304.808,1178.887Z" transform="translate(-291.724 -1170.377)"/><path class="c" d="M317.824,1177.06c.009.1-.2.28-.337.312a4.762,4.762,0,0,1-.812.074v.108l-.24-.089c-.042.019-.082.04-.124.061-.027.3-.107.515-.5.519a3.712,3.712,0,0,0-.894.205l-.091.05.569.063a1.567,1.567,0,0,1-.194.183c-.5.278-.985.576-1.5.818-.205.1-.479.031-.7.1l-.032.013c-.135.095-.266.192-.4.287l-.006.005c-.131.148-.179.384-.325.5-.59.47-1.2.913-1.812,1.356-.179.131-.264.281-.093.441.068.061.255.036.371,0a5.037,5.037,0,0,1,1.1-.384c.377-.027.7.017.907-.384a.479.479,0,0,1,.388-.15c.361.021.677.009.873-.371a.6.6,0,0,1,.342-.282c.329-.074.671-.089,1.006-.135a1.8,1.8,0,0,0,.4-.088c.437-.177.858-.4,1.3-.544a7.29,7.29,0,0,0,2-.74,1.6,1.6,0,0,1,1.014-.361,5.887,5.887,0,0,0,1.362-.734.432.432,0,0,1,.205-.078,1.545,1.545,0,0,0,.205-.2l-.285-.209.1-.071c-.057-.232-.055-.614-.186-.666a5.491,5.491,0,0,0-1.219-.236c-.059-.009-.15.074-.19.052-.4-.232-.753.243-1.166.076a.132.132,0,0,0-.038,0q-.5.146-1,.335A.706.706,0,0,0,317.824,1177.06Z" transform="translate(-286.829 -1172.025)"/><path class="c" d="M316.627,1179.455l0-.023-.019.028Z" transform="translate(-281.083 -1169.306)"/><path class="c" d="M298.745,1197.458c1.831-3.069,4.3-5.44,6.785-7.972a36.448,36.448,0,0,0,2.78-3.155,9.057,9.057,0,0,1,.6-.687.341.341,0,0,0,.453-.049l.068-.08h0l.006-.008c3.119-3.552,6.093-7.471,9.687-10.554.4-.346-.145-.958-.548-.614s-.789.7-1.173,1.059c-1.208,1.133-2.349,2.352-3.459,3.605-.084.093-.167.187-.249.28l-.342.394-.067.078c-.6.7-1.2,1.4-1.8,2.1l-.544.643-.156.184a.427.427,0,0,0-.2.135l-.021.025a8.389,8.389,0,0,1-.7.751c-.137.135-.278.264-.418.4l-.131.118a13.494,13.494,0,0,0-1.518,1.523c-.376.473-.764.932-1.156,1.385-.108.124-.217.247-.327.371q-.536.61-1.1,1.2c-.167.177-.337.354-.506.529s-.333.342-.5.511c-.074.074-.145.15-.221.222l-.055.057c-.445.443-.882.884-1.312,1.331l-.068.069q-.713.745-1.392,1.508-.305.348-.6.7a26.717,26.717,0,0,0-2.449,3.387c-.021.032-.042.065-.063.1C297.79,1197.456,298.475,1197.912,298.745,1197.458Z" transform="translate(-297.865 -1173.989)"/><path class="c" d="M310.243,1182.492c-.15-.251.183-.675.8-1.183a.4.4,0,0,0,.586.388,4.927,4.927,0,0,0,1.177-.958c.173-.133.354-.264.533-.4.133-.1.264-.192.4-.287.6-.414,1.219-.808,1.862-1.173l.091-.05c.458-.259.924-.5,1.394-.725.042-.021.082-.042.124-.061.46-.215.924-.4,1.386-.572q.505-.189,1-.335c.146-.043.295-.093.439-.131a.42.42,0,0,0-.009-.812.413.413,0,0,0-.481-.42c-.16.025-.314.057-.466.093a6.857,6.857,0,0,0-1.189.411,8.984,8.984,0,0,0-.831.42c-.186.1-.373.217-.559.333-.088.055-.173.106-.26.163-.806.517-1.634.976-2.463,1.432-.205.112-.409.224-.614.338-.281.156-.565.314-.846.475-.049.029-.1.055-.15.084-.742.426-3.016,1.858-2.765,3.052a.934.934,0,0,0,.108.285C309.781,1183.315,310.515,1182.946,310.243,1182.492Z" transform="translate(-287.599 -1172.607)"/><path class="c" d="M315.54,1177.963l-.086.036c-.491.221-.11.913.373.732a1.423,1.423,0,0,1,.774-.11.375.375,0,0,0,.405-.479c.15-.1.3-.194.441-.3.359-.265.027-.734-.34-.692a.431.431,0,0,0-.205.078A5.871,5.871,0,0,1,315.54,1177.963Z" transform="translate(-282.331 -1171.364)"/><path class="c" d="M309.784,1194.885h-.367a6.127,6.127,0,0,1,1.462-1.833,4.8,4.8,0,0,1,2.269-1.592.382.382,0,0,0,.3-.495.366.366,0,0,0,.43-.061c1.679-1.643,3.374-3.275,5.036-4.935.487-.489.955-1.035,1.426-1.592.029-.025.057-.053.086-.078a.405.405,0,0,0,.112-.156,23.115,23.115,0,0,1,2.118-2.284.4.4,0,0,0,.607-.061c.219-.306.432-.612.648-.919l.019-.029q.827-1.172,1.634-2.362a.411.411,0,0,0-.685-.454c-.129.192-.264.38-.4.572l-.327.474c-.291.422-.578.844-.873,1.263a.2.2,0,0,0-.032.013c-.188.126-.367.26-.542.4-.2.154-.384.32-.569.489-.063.059-.127.116-.188.175-.228.221-.449.453-.666.687-.122.135-.243.27-.365.409-.325.371-.643.75-.964,1.126a.52.52,0,0,0-.078.044c-.217.19-.426.386-.639.578-.112.1-.223.2-.333.3-.894.81-1.765,1.639-2.609,2.5q-.619.63-1.221,1.28c-.287.308-.567.624-.846.939-.3.333-.6.66-.89,1l-.01.009h0l-.07.078a.323.323,0,0,0-.068.306.386.386,0,0,0-.217-.019,3.1,3.1,0,0,0-.635.2,9.142,9.142,0,0,0-3.273,3.033c-.28.377-.757,1.086-.453,1.565a.951.951,0,0,0,1.012.325,2.039,2.039,0,0,0,.531-.165A.411.411,0,0,0,309.784,1194.885Z" transform="translate(-288.381 -1170.726)"/><path class="c" d="M332.656,1178.34a.367.367,0,0,0,.108-.612l.049-.038c.43-.306-.12-.917-.548-.614a10.164,10.164,0,0,0-.955.774c-.141.086-.24.143-.316.2a.686.686,0,0,0-.086.071l-.365.238-.544.357-.169.11-.877.431-.065.032-3.259,1.609a5.041,5.041,0,0,0-2.2,1.437,1.736,1.736,0,0,0-.255.757.414.414,0,0,0,.6.39c1.407-.806,2.794-1.647,4.17-2.5a.356.356,0,0,0,.523.154c.666-.4,1.318-.818,1.957-1.261l.055-.036c.034-.023.067-.049.1-.072.506-.367,1-.812,1.538-1.145.053-.032.108-.065.164-.1A3.586,3.586,0,0,1,332.656,1178.34Z" transform="translate(-275.163 -1171.504)"/><path class="c" d="M333.022,1185.52c.274-.187.548-.382.818-.588a.353.353,0,0,0,.091-.47c.409-.358.808-.726,1.2-1.116a.418.418,0,0,0-.432-.69.414.414,0,0,0-.114.076c-.065.065-.131.127-.2.19s-.107.1-.16.156a24,24,0,0,1-2.113,1.81h0l-1.614.708-1.554.681q-2.022.887-4.043,1.772c-1.841.808-4.014,1.436-5.557,2.763a.452.452,0,0,0-.1.124.418.418,0,0,0,.494.563l-.209.066c-.5.16-.333.966.171.8s1.008-.322,1.512-.487l.148-.047q.7-.231,1.4-.475a35.2,35.2,0,0,0,3.484-1.411,16.117,16.117,0,0,0,2.113-1.288c.118-.082.236-.163.354-.247l.542-.377a11.83,11.83,0,0,1,3.128-1.694c.152-.045.3-.088.46-.12a.375.375,0,0,0,.3-.3A.467.467,0,0,0,333.022,1185.52Zm-4.05,1.828a20.779,20.779,0,0,1-1.885,1.244,38.825,38.825,0,0,1-7.215,2.864C322.959,1190.2,325.979,1188.8,328.972,1187.348Z" transform="translate(-278.749 -1166.429)"/><path class="c" d="M341.95,1177.307c-.027.046-.055.092-.082.137a.425.425,0,0,0-.77.03,9.355,9.355,0,0,1-2.187,2.737,28.863,28.863,0,0,1-2.3,2.1.407.407,0,0,0,.228.706.375.375,0,0,0,.232-.032,14.534,14.534,0,0,0,3.071-2.267,11.991,11.991,0,0,0,2.1-2.337c.135-.2.272-.4.392-.618C342.889,1177.3,342.207,1176.845,341.95,1177.307Z" transform="translate(-263.171 -1171.395)"/><path class="c" d="M339.282,1181.936a8.918,8.918,0,0,1-3.455-.143c-.506-.152-.772.626-.264.778a6.024,6.024,0,0,0,.6.143,11.323,11.323,0,0,0,3.206.034l.087-.01C339.978,1182.689,339.8,1181.886,339.282,1181.936Z" transform="translate(-264.24 -1167.194)"/><path class="c" d="M343.107,1184.53a.8.8,0,0,0,.053-.953,2.648,2.648,0,0,0-.778-.816,4.3,4.3,0,0,0-2.385-.82c-.182-.011-.369-.015-.565-.011a.41.41,0,0,0-.2.057c-.32-.226-.791.257-.517.643.257.36.614.331,1.008.432a2.947,2.947,0,0,1,.31.1l.059.023a5.121,5.121,0,0,1,1.09.6,4.111,4.111,0,0,1,.367.3c.084.08.177.177.276.272C342.2,1184.719,342.668,1185.076,343.107,1184.53Z" transform="translate(-261.223 -1167.054)"/><path class="c" d="M339.96,1186.569l1.181-.97a.356.356,0,0,0,.143-.3c.057-.052.11-.106.167-.158a5.193,5.193,0,0,1,.814-.584.7.7,0,0,0,.392-.447c.12-.512-.658-.78-.778-.265,0,.005-.378.209-.479.281-.021.015-.04.03-.059.046a6.911,6.911,0,0,0-.61.517c-.443.417-.879.84-1.318,1.261a.39.39,0,0,0-.122.354A.41.41,0,0,0,339.96,1186.569Z" transform="translate(-260.637 -1165.573)"/><path class="c" d="M345.073,1184.558c-.683,1.571-2.775,2.645-4.111,3.587-1.613,1.133-3.265,2.2-4.946,3.231a.434.434,0,0,0,.141.791.359.359,0,0,0,.232-.059h0c.652-.4,1.3-.806,1.938-1.219.2-.129.405-.26.609-.392.169-.11.34-.222.51-.335s.359-.242.538-.361.363-.241.544-.365q.767-.525,1.527-1.065c1.265-.9,2.8-1.767,3.588-3.142a3.918,3.918,0,0,0,.209-.407C346.064,1184.338,345.282,1184.077,345.073,1184.558Z" transform="translate(-263.769 -1164.914)"/><path class="c" d="M338.391,1188.52c-2.234,1.626-4.619,3.014-7.468,2.982-.527-.006-.578.814-.048.822a9.7,9.7,0,0,0,1.061-.05,12.637,12.637,0,0,0,5.524-2.128q.75-.479,1.476-1.012C339.364,1188.823,338.815,1188.212,338.391,1188.52Z" transform="translate(-268.557 -1161.188)"/></g><g transform="translate(0 4.695)"><path class="c" d="M284.871,1184.116l-.048-.05-.036.053Z" transform="translate(-194.577 -1169.822)"/><path class="c" d="M241.2,1187.62c-.139.121-.251.186-.318.257.1.008.192.011.287.019C241.185,1187.81,241.2,1187.72,241.2,1187.62Z" transform="translate(-234.163 -1166.618)"/><path class="c" d="M245.517,1187.591c-.061.068-.131.13-.186.183l.238-.029Z" transform="translate(-230.154 -1166.644)"/><path class="c" d="M268.957,1180.985l-.131.1.049.065Z" transform="translate(-208.969 -1172.601)"/><path class="c" d="M245.9,1187.61l-.133.04c.049-.008.1-.013.148-.019Z" transform="translate(-229.761 -1166.627)"/><path class="c" d="M254.894,1178.754a4.107,4.107,0,0,1,.38-.221A.534.534,0,0,0,254.894,1178.754Z" transform="translate(-221.531 -1174.811)"/><path class="c" d="M254.692,1181.742c-.01-.093-.021-.188-.032-.281A.763.763,0,0,0,254.692,1181.742Z" transform="translate(-221.746 -1172.171)"/><path class="c" d="M254.5,1183.329c.046-.088.084-.175.12-.265A.563.563,0,0,0,254.5,1183.329Z" transform="translate(-221.889 -1170.725)"/><path class="c" d="M249.5,1187.185c.017-.038.03-.069.046-.1l-.068.029Z" transform="translate(-226.412 -1167.101)"/><path class="c" d="M238.146,1187.654l.019-.065a1.513,1.513,0,0,1-.217-.065A.842.842,0,0,0,238.146,1187.654Z" transform="translate(-236.811 -1166.704)"/><path class="c" d="M272.249,1180.077a5.462,5.462,0,0,1,1.436-.709,1.526,1.526,0,0,1,.848-.2,1.375,1.375,0,0,0,.808-.114,1.465,1.465,0,0,1,1.466.114c.148.066.369.173.472.114.262-.15.418.015.614.1a.422.422,0,0,1,.221.664,1.7,1.7,0,0,0-.245.606l-.7.873a5.146,5.146,0,0,1,.858-.6c.407-.224.742.308.51.616a.707.707,0,0,0,.234-.24c.194-.28.289-.719.542-.841.365-.173.367-.435.432-.708a1.755,1.755,0,0,0-.765-1.632,7.369,7.369,0,0,0-3.142-.607,4.861,4.861,0,0,0-1.8.228,2.176,2.176,0,0,1-.892.183c-.038-.027-.167.078-.253.122-.165.089-.339.165-.5.262-.321.2-.637.4-.945.62-.186.135-.346.352-.527.462a.407.407,0,0,1,.293.753c-.751.367-1.687,1.112-1.518,2.107a6.05,6.05,0,0,0,.622,1.295c.048.1.089.2.133.3a.334.334,0,0,1,.2.28l.03.257a13.546,13.546,0,0,1,.582,1.9.377.377,0,0,1-.059.318,2.93,2.93,0,0,1-.046.751,4,4,0,0,1-1.111,1.883,4.131,4.131,0,0,1-.567.614c-.407.358-.892-.23-.546-.614l.242-.27h0l-.938.907c-.171-.091-.35-.068-.3.148a3.7,3.7,0,0,0-.531.483,1,1,0,0,1-.721.5c-.091.011-.167.135-.255.2-.059.045-.112.114-.179.129a4.441,4.441,0,0,0-2.094,1.455c-.1-.47-.32-.215-.525-.1a9.535,9.535,0,0,1-1,.576c-.434.184-.9.293-1.343.462-.586.217-1.154.458-1.732.688-.23.089-.466.158-.7.24-.319.1-.631.23-.953.306-.521.128-1.046.236-1.573.321-.707.11-1.419.188-2.132.28-.3.04-.6.068-.9.116-.424.067-.844.152-1.272.215-.34.046-.688.078-1.031.1-.521.04-1.042.084-1.561.1-.466.017-.938-.01-1.4,0-.413.013-.82.068-1.23.076-1.092.028-2.183.038-3.279.057a.688.688,0,0,1-.205-.024c-.531-.137-1.055-.295-1.588-.413a1.86,1.86,0,0,0-.54.019,2.226,2.226,0,0,0-.534-.249,2.35,2.35,0,0,1-1.729-1.681,1.471,1.471,0,0,0-.15-.329,1.456,1.456,0,0,0,.188-.27,3.325,3.325,0,0,1,1.8-2.141,2.764,2.764,0,0,0,.43-.24c.426-.247.833-.515,1.272-.728a10.715,10.715,0,0,1,1.523-.624c.283-.086.468-.355.685-.409.7-.156,1.276-.711,2.044-.618a.253.253,0,0,0,.205-.127c.112-.314.386-.266.629-.3.217-.032.434-.074.647-.124.753-.169,1.265-.885,2.08-.919a2,2,0,0,0,.5-.12c.112-.03.219-.091.331-.116a.871.871,0,0,1,.365-.046c.371.066.755.3,1.008-.209.023-.051.145-.078.226-.086.3-.027.61-.027.915-.07a1.952,1.952,0,0,0,.416-.181c-.025-.055-.046-.106-.068-.162a2.365,2.365,0,0,1-.529.192c-.295.04-.609-.015-.9.051-1.409.308-2.811.635-4.214.974-.85.209-1.7.445-2.537.686-.439.127-.865.3-1.3.443-.143.046-.3.057-.437.091a6.057,6.057,0,0,0-.835.2,9.942,9.942,0,0,0-1.025.493,3.359,3.359,0,0,0-.382.281l-1.128.148c.027.044.049.082.07.124-.472.274-.939.542-1.392.8.086.087.175.179.226.23a5.619,5.619,0,0,0-.749.208,3.568,3.568,0,0,0-.432.342c-.485.323-.78.527-.675.865.038-.051.072-.1.114-.154.331-.4,1.017.046.683.455a2.647,2.647,0,0,0-.285.437.32.32,0,0,1-.07.344c-.04.048-.08.1-.12.147a2.593,2.593,0,0,0,1.626,2.826,11.232,11.232,0,0,0,3.9.73c.053,0,.108.006.162.011.067-.071.179-.135.318-.257-.006.1-.017.19-.03.276a45.854,45.854,0,0,0,5.76.057c.81-.046,1.613-.112,2.408-.205.055-.053.126-.114.186-.183l.051.154c.2-.025.4-.051.591-.078l.133-.04.015.021a26.568,26.568,0,0,0,9.59-3.21c.46-.264.829.47.373.732-.114.067-.23.126-.346.188a.812.812,0,0,1,.116-.011c.127,0,.259-.118.382-.192a6.343,6.343,0,0,1,.563-.35c.228-.114.475-.186.711-.289.342-.148.685-.31,1.025-.475.063-.028.1-.108.16-.154a2.128,2.128,0,0,1,.291-.194c.124-.067.266-.091.38-.167.62-.407,1.257-.806,1.854-1.246a19.264,19.264,0,0,0,1.921-1.538,5.2,5.2,0,0,0,1.514-2.611,4.428,4.428,0,0,0-.295-2.944c-.171-.367-.449-.688-.654-1.042-.089-.162-.107-.367-.192-.538a1.327,1.327,0,0,1,.114-1.322C271.181,1180.918,271.711,1180.492,272.249,1180.077Z" transform="translate(-237.023 -1175.742)"/><path class="c" d="M254.416,1180.735l-.076-.152a.811.811,0,0,0,.4.993l.011,0c-.042-.122-.084-.245-.114-.375C254.566,1181.049,254.5,1180.891,254.416,1180.735Z" transform="translate(-222.063 -1172.963)"/><path class="c" d="M237.741,1185.489c-.038-.059-.078-.124-.12-.186a2.634,2.634,0,0,0-.1.378c-.013.137-.027.276-.04.415l.011-.021A3.372,3.372,0,0,1,237.741,1185.489Z" transform="translate(-237.229 -1168.707)"/><path class="c" d="M259.29,1179.759l-.19.238-.913.905c-.316.257-.6.492-.877.726.023.031.046.065.065.1.382-.224.763-.45,1.183-.7l1-.765A.428.428,0,0,1,259.29,1179.759Z" transform="translate(-219.353 -1173.706)"/><path class="c" d="M266.7,1183.135l-.607.4c-.139.091-.358.166-.392.287a.922.922,0,0,1-.07.175c.078-.051.15-.108.228-.158A5.286,5.286,0,0,0,266.7,1183.135Z" transform="translate(-211.847 -1170.662)"/><path class="c" d="M269.7,1185l.006.044.006-.049Z" transform="translate(-208.183 -1168.989)"/><path class="c" d="M281.875,1180.753c-.2-.137-.523-.084-.787-.133a3.834,3.834,0,0,0-2.3.506c-.416.186-.808.426-1.23.593-.3.118-.641.118-.941.232-.643.24-1.27.515-1.9.787a4.313,4.313,0,0,0-.772.386,4.823,4.823,0,0,0-1.274,1.023c-.027.036-.11.026-.154.057-.346.226-.686.458-1.036.692l-.185-.574.567.032-.335-.413-.24.308a.421.421,0,0,1-.382.163,7.777,7.777,0,0,0-.61.616,12.385,12.385,0,0,1-1.675,1.7c-.6.46-1.286.78-1.877,1.284-.713.607-1.4,1.24-2.077,1.888-.382.367-.926-.247-.546-.614.207-.2.416-.392.626-.584a2.164,2.164,0,0,0-1.164.675c-.574.5-.04,1.029-.23,1.567a1.931,1.931,0,0,0,.97-.139c.738-.445,1.428-.968,2.151-1.442.382-.251.8-.441,1.189-.688.749-.481,1.468-1.014,2.234-1.468.795-.469,1.628-.875,2.446-1.3s1.62-.841,2.434-1.257,1.645-.852,2.478-1.255c.485-.234.989-.428,1.489-.629.268-.108.542-.213.831-.323a2.727,2.727,0,0,0,.029-.276.375.375,0,0,1,.487-.356.963.963,0,0,1,.572-.137,1.027,1.027,0,0,1-.118,2.05,1.058,1.058,0,0,1-.316-.07l-.029.1a5.88,5.88,0,0,1-.369.648.388.388,0,0,1-.19.2c-.025.04-.046.082-.07.124a.363.363,0,0,1,0,.418c-.171.2-.39.354-.557.555-.188.22-.344.475-.513.713a.382.382,0,0,1-.308.169.372.372,0,0,1-.107.424l-.2.188c-.008.013-.009.027-.019.042l-.055.082a.374.374,0,0,1-.219.156c-.1.1-.19.2-.283.3a.4.4,0,0,1-.086.464c-.15.15-.2.4-.321.574l.019-.013a30.068,30.068,0,0,1,2.12-2.325,12.81,12.81,0,0,0,1.919-2.25,15.561,15.561,0,0,0,1.192-2.223A.9.9,0,0,0,281.875,1180.753Z" transform="translate(-213.95 -1172.965)"/><path class="c" d="M271.767,1182.33a1.152,1.152,0,0,0-.276.456c-.078.181-.143.363-.207.544a9.485,9.485,0,0,0,.586-.978C271.824,1182.33,271.784,1182.317,271.767,1182.33Z" transform="translate(-206.753 -1171.392)"/><path class="c" d="M270.423,1185.305a.408.408,0,0,1-.694-.1c-.019.34-.049.681-.053,1.021a.329.329,0,0,0,.15.261,3.948,3.948,0,0,0,.81.148c.323.017.523-.179.766-.4a1.657,1.657,0,0,1,1.044-.339c.544.006.715-.508,1.137-.65a1.292,1.292,0,0,0-.451.063c-.719.213-1.436.437-2.158.637a.466.466,0,0,1-.373-.086c-.055-.049-.011-.224.011-.339a2.505,2.505,0,0,1,.112-.27l.023-.074a.826.826,0,0,1-.1.078A.331.331,0,0,1,270.423,1185.305Z" transform="translate(-208.203 -1168.822)"/><path class="c" d="M271.033,1183.785a.351.351,0,0,1,.048-.329.286.286,0,0,1,.015-.1,4.5,4.5,0,0,0-.339.571l.051-.048A.366.366,0,0,1,271.033,1183.785Z" transform="translate(-207.228 -1170.46)"/><path class="c" d="M265.3,1183.767a2.147,2.147,0,0,0-.07.205c.1-.073.2-.139.3-.209A1.161,1.161,0,0,1,265.3,1183.767Z" transform="translate(-212.215 -1170.096)"/><path class="c" d="M269.936,1180.381a.919.919,0,0,1,.093.011l-.354.283c.35.023.588-.173.418-.439C270.04,1180.284,269.989,1180.334,269.936,1180.381Z" transform="translate(-208.204 -1173.275)"/><path class="c" d="M269.983,1181.34l-.082.167-.049-.065a14.546,14.546,0,0,0-2.164,2.333.119.119,0,0,0,.061.006,3.086,3.086,0,0,0,.523-.228c-.268-.418.177-.4.342-.527.223-.173.481-.3.711-.46a6.553,6.553,0,0,0,.612-.489,6.437,6.437,0,0,0,.854-.833,2.39,2.39,0,0,0,.3-.654,4.892,4.892,0,0,1-.428.283A5.959,5.959,0,0,0,269.983,1181.34Z" transform="translate(-209.995 -1172.956)"/><path class="c" d="M286.147,1183.4l.082-.057a.442.442,0,0,1,.173-.074l.03-.061h.126c.006.019.011.04.019.059a.419.419,0,0,1,.3.224,1.12,1.12,0,0,1,.609-.639,3.342,3.342,0,0,0,.65-.525c.038-.034.074-.073.11-.109a.409.409,0,0,1-.162-.58c.116-.2.251-.413.4-.639-.063.021-.141.053-.245.1a.556.556,0,0,1-.124.021,1.71,1.71,0,0,0-1.137.713.658.658,0,0,1-.24.188c-.411.2-.823.367-.972.884a8.358,8.358,0,0,1-.453.964,2.565,2.565,0,0,0-.3.877c0,.067,0,.131.008.2.359-.437.713-.865,1-1.293A.369.369,0,0,1,286.147,1183.4Z" transform="translate(-194.376 -1172.582)"/><path class="c" d="M288.68,1180.992c.31.192.474.036.643-.2.2-.274.369-.574.812-.559.156.005.392-.226.466-.4a1.376,1.376,0,0,0,.068-.234,9.353,9.353,0,0,0-2.421,1.78.592.592,0,0,1,.236.127Z" transform="translate(-191.457 -1173.853)"/><path class="c" d="M296.843,1178.744c-.422-.339-.909-.16-1.35-.3a.779.779,0,0,0-.688.144c-.013.019-.029.034-.044.053a2.69,2.69,0,0,1,1.66.394c.451.278-.006.96-.454.685a1.767,1.767,0,0,0-.287-.139l-.01.011c.116.141.23.285.357.443-.449.631-.928,1.324-1.434,2a5.725,5.725,0,0,1-.576.534c-.1.1-.175.24-.272.35a1.118,1.118,0,0,1-.215.171,2.421,2.421,0,0,0-.494.333,7.866,7.866,0,0,1-2.423,1.887c-.333.167-.63.4-.955.584a2.1,2.1,0,0,1-.73.236,3.424,3.424,0,0,0,1.01-1.768,5.279,5.279,0,0,1-2.929,2.175c-.432.648-.93,1.223-1.415,1.843-.15.192-.386.475-.591.776l.048.05-.084,0a1.885,1.885,0,0,0-.38.913c0,.7,1.518,2.615,2.276,2.571.411-.023.466.466.224.7a.525.525,0,0,1,.125.1c.017.021.1-.015.16-.029a2.745,2.745,0,0,0,.647-.16c.148-.074.243-.255.361-.39-.135-.093-.276-.27-.407-.264a3.254,3.254,0,0,1-2.339-.968c.017-.291.017-.5.044-.7a2.793,2.793,0,0,1,.139-.706,3.334,3.334,0,0,1,.449-.732c.287-.367.6-.715.911-1.055.059-.063.268-.1.293-.063.169.234.346.055.521.042.555-.038.966-.447,1.529-.542a4.263,4.263,0,0,0,1.4-.772c.4-.257.783-.555,1.183-.822.453-.3.924-.576,1.369-.888s.736-.835,1.251-1.082c.023-.011.032-.046.049-.069.418-.508.823-1.029,1.257-1.523a5.143,5.143,0,0,0,1.354-2.354C297.558,1179.556,297.5,1179.269,296.843,1178.744Z" transform="translate(-194.758 -1174.911)"/><path class="c" d="M287.514,1181.87c.437-.144.445-.439.418-.745l-.314.4A1.118,1.118,0,0,1,287.514,1181.87Z" transform="translate(-192.119 -1172.474)"/><path class="c" d="M285.052,1186.3a.929.929,0,0,0,.1-.015c-.032-.01-.065-.019-.1-.031Z" transform="translate(-194.339 -1167.848)"/><path class="c" d="M288.834,1180.78l-.576.1c.023-.063.044-.131.063-.2-.12.131-.24.266-.359.413-.034.04-.068.083-.1.125l.175.354Z" transform="translate(-191.808 -1172.869)"/><path class="c" d="M279.854,1184.9h0l.008,0Z" transform="translate(-199.026 -1169.069)"/><path class="c" d="M288.659,1179.357a2.9,2.9,0,0,1-.445.032c-.221,0-.475-.1-.656-.019a10.958,10.958,0,0,0-1.246.7c-.506.308-1.019.611-1.5.955-1.05.745-2.1,1.494-3.132,2.263a5.055,5.055,0,0,0-1.48,1.453,2.162,2.162,0,0,1-.462.481c-.247.226-.5.449-.753.671a4.969,4.969,0,0,1,.761-.316c.506-.158.671.649.171.8a6.43,6.43,0,0,0-3.836,4.973c-.053.525-.875.479-.82-.048.015-.161.042-.323.072-.487l0,.007a7.478,7.478,0,0,0-.137,1.151,1.389,1.389,0,0,0,1.339,1.3,5.129,5.129,0,0,0,1.7-.352,4.091,4.091,0,0,0,1.421-.747.315.315,0,0,1,.276-.023c.232.443.392.112.591-.032a7.735,7.735,0,0,1,1.029-.675c.422-.211.939-.235,1.225-.7a.379.379,0,0,1,.291-.142c.527.032.734-.365.993-.7a1.026,1.026,0,0,0-.987.035c-.725.327-1.472.6-2.2.913-.367.158-.715.36-1.084.548a2.152,2.152,0,0,0-.681.086,6.17,6.17,0,0,1-1.634.4c-.306.046-.506-.07-.487-.4a1.124,1.124,0,0,1,.126-.548c.495-.711.979-1.436,1.54-2.092.675-.789,1.419-1.52,2.141-2.267.348-.359.715-.709,1.1-1.082l-.243.15a.411.411,0,1,1-.373-.732l.645-.393a.411.411,0,0,1,.551.179.4.4,0,0,1-.051.437.632.632,0,0,0,.407-.2c.211-.177.392-.392.612-.555.749-.567,1.514-1.113,2.265-1.677.365-.274.692-.6,1.071-.856.645-.43,1.306-.837,1.98-1.219.369-.209.331-.571.394-.877C289.208,1179.442,289,1179.307,288.659,1179.357Z" transform="translate(-203.228 -1174.085)"/><path class="c" d="M263.432,1184.13a.43.43,0,0,1-.766-.232c-.247-.411-.361-.106-.506,0-.076.057-.141.161-.222.174-.542.084-.694.639-1.1.89-.017.011-.021.053-.019.08.051.443-.31.464-.544.415-.46-.1-.593.377-.938.451a.357.357,0,0,0,0,.182.513.513,0,0,1-.445.7c-.177.015-.358,0-.527,0-.19.738-.19.742-.675.787-.089.01-.19-.059-.274-.038a1.278,1.278,0,0,0-.3.162l-.019.021c.388.01.618.587.194.766a7.146,7.146,0,0,0-.69.314.4.4,0,0,1,.114.291.917.917,0,0,1-.063.308.384.384,0,0,1-.036.143c.065-.032.131-.063.194-.1.441-.272.823-.641,1.247-.947.207-.15.466-.232.669-.387.272-.208.493-.622.768-.652.477-.05.675-.411.966-.637.88-.683,1.7-1.441,2.558-2.163.354-.3.728-.574,1.114-.88l-.038-.015c-.051.029-.1.061-.158.088C263.784,1183.928,263.54,1183.985,263.432,1184.13Z" transform="translate(-219.99 -1170.162)"/><path class="c" d="M266.422,1181.566a.4.4,0,0,1-.474-.082,3.361,3.361,0,0,1-.823.1.408.408,0,0,1-.371-.5,3.094,3.094,0,0,0-.276.272c-.186.213-.333.574-.552.622-.6.125-.7.6-.937,1.014a1.237,1.237,0,0,1-.671.563c-.371.091-.563.4-.884.534-.162.069-.272.255-.411.382-.207.19-.571.357-.6.569-.048.407-.281.53-.59.664l-.023.386a.59.59,0,0,1,.038-.062,2.749,2.749,0,0,1,.981-.643,3.651,3.651,0,0,0,1.046-.892c.329-.407,1.017.044.685.457a5.294,5.294,0,0,1-.641.65,10.946,10.946,0,0,0,1.742-1.536,37.629,37.629,0,0,0,2.967-2.64l-.017-.022A.871.871,0,0,1,266.422,1181.566Z" transform="translate(-217.095 -1172.512)"/><path class="c" d="M266.394,1176.829a3.57,3.57,0,0,1,.074.936l.456-.7-.146-.03c-.072-.1-.122-.253-.221-.3a2.423,2.423,0,0,0-.264-.1A.388.388,0,0,1,266.394,1176.829Z" transform="translate(-211.253 -1176.521)"/><path class="c" d="M266.156,1177.045l-.017-.1a.767.767,0,0,1-.369.394c-.044.021-.034.148-.036.158l.169.034.074-.265A.352.352,0,0,1,266.156,1177.045Z" transform="translate(-211.757 -1176.239)"/><path class="c" d="M265.858,1177.838l-.032.048.133.093a.272.272,0,0,1,.04-.089A.346.346,0,0,1,265.858,1177.838Z" transform="translate(-211.674 -1175.438)"/><path class="c" d="M265.7,1177.494l.108.019.021-.074Z" transform="translate(-211.784 -1175.798)"/><path class="c" d="M270.913,1179.793c-.078.059-.152.124-.228.186.487-.137.6-.489.279-.962l-.348.08C270.96,1179.095,271.251,1179.532,270.913,1179.793Z" transform="translate(-207.355 -1174.375)"/><path class="c" d="M269.93,1179.413l-.011.009.019-.012Z" transform="translate(-207.984 -1174.02)"/><path class="c" d="M270.442,1180.273a2.142,2.142,0,0,0,.165-.487c-.177.169-.35.34-.525.512Z" transform="translate(-207.836 -1173.682)"/><path class="c" d="M282.2,1183.885a3.6,3.6,0,0,1-1.417.744c-.055.01-.084.2-.124.3.116.029.249.107.346.074.181-.059.331-.226.512-.272.443-.112.624-.449.837-.814C282.271,1183.9,282.217,1183.87,282.2,1183.885Z" transform="translate(-198.302 -1169.99)"/><path class="c" d="M279.853,1184.9l.009.007,0-.008Z" transform="translate(-199.026 -1169.071)"/><path class="c" d="M281.02,1184.4c-.548-.049-.8.437-1.179.673-.034.021.023.184.04.287a2.764,2.764,0,0,1,.367-.078C280.615,1185.24,281.083,1184.723,281.02,1184.4Z" transform="translate(-199.047 -1169.528)"/><path class="c" d="M292.67,1179.711c-.27.129-.517.257-.759.386a1.378,1.378,0,0,1-.069.234c-.074.177-.31.409-.466.4-.443-.016-.616.285-.812.559-.169.236-.333.392-.643.2l-.2.512a.6.6,0,0,0-.236-.127c-.093.1-.186.192-.28.295-.019.067-.04.135-.063.2l.576-.1-.8.8-.175-.354c-.078.1-.156.194-.236.295.027.306.019.6-.418.745a1.118,1.118,0,0,0,.1-.346c-.1.131-.209.266-.319.4a3.425,3.425,0,0,1-1.01,1.768,2.107,2.107,0,0,0,.73-.236c.325-.181.622-.417.955-.584a7.862,7.862,0,0,0,2.423-1.887,2.422,2.422,0,0,1,.494-.333,1.118,1.118,0,0,0,.215-.171c.1-.11.167-.247.272-.35a5.73,5.73,0,0,0,.576-.534c.506-.673.985-1.365,1.434-2-.127-.158-.241-.3-.357-.443A1.874,1.874,0,0,1,292.67,1179.711Z" transform="translate(-192.699 -1174.354)"/><path class="c" d="M285.772,1182.166l-.03.061a.421.421,0,0,1,.175,0c-.008-.019-.013-.04-.019-.059Z" transform="translate(-193.716 -1171.536)"/><path class="c" d="M271.537,1187.251c.093-.1.186-.2.283-.3a.374.374,0,0,0,.219-.156l.055-.082c.01-.015.011-.028.019-.042l.2-.188a.372.372,0,0,0,.107-.424.383.383,0,0,0,.308-.169c.169-.238.325-.493.513-.713.167-.2.386-.352.557-.555a.363.363,0,0,0,0-.418c.025-.042.046-.084.07-.124a.388.388,0,0,0,.19-.2c.1-.236.295-.4.369-.649l.029-.1a1.066,1.066,0,0,0,.316.07,1.027,1.027,0,0,0,.118-2.05.963.963,0,0,0-.572.137.375.375,0,0,0-.487.356,2.71,2.71,0,0,1-.029.276,4.579,4.579,0,0,1-.5,1.489,9.484,9.484,0,0,1-.586.978c-.2.295-.405.574-.6.822a.393.393,0,0,0-.068.139.287.287,0,0,0-.015.1.351.351,0,0,0-.048.329.367.367,0,0,0-.224.1l-.051.048c-.1.093-.2.186-.3.281a3.809,3.809,0,0,0-1.209.862,2.784,2.784,0,0,0-.493,1.39l-.006.049c-.006.055-.015.114-.017.167a.39.39,0,0,0,.023.16.408.408,0,0,0,.694.1.331.331,0,0,0,.228-.051.809.809,0,0,0,.1-.078,3.139,3.139,0,0,0,.39-.508l.006-.008c.126-.175.171-.424.321-.574A.4.4,0,0,0,271.537,1187.251Z" transform="translate(-208.189 -1172.45)"/><path class="c" d="M264.337,1191.27c.675-.648,1.364-1.282,2.077-1.888.591-.5,1.28-.824,1.877-1.284a12.4,12.4,0,0,0,1.675-1.7,7.742,7.742,0,0,1,.61-.616.421.421,0,0,0,.382-.164l.24-.308.12-.156a14.529,14.529,0,0,1,2.164-2.333l.131-.1a5.942,5.942,0,0,1,.679-.466,4.869,4.869,0,0,0,.428-.283,7.572,7.572,0,0,0,.637-.529c.053-.048.1-.1.158-.144.12-.114.24-.229.358-.346.175-.171.348-.342.525-.512s.367-.34.557-.5c.076-.063.15-.127.228-.186.339-.26.048-.7-.3-.7a.394.394,0,0,0-.249.082l-.086.07a.4.4,0,0,0-.1.025,9.1,9.1,0,0,0-.873.492l-.019.011a25.3,25.3,0,0,0-2.761,2.166,19.167,19.167,0,0,1-3.189,3.644c-.369.412-.73.859-1.13,1.26a5.26,5.26,0,0,1-.841.7c-.078.05-.15.107-.228.158-.16.108-.319.22-.475.333-.1.071-.2.137-.3.209a27.315,27.315,0,0,0-2.219,1.858c-.209.192-.418.384-.626.584C263.411,1191.022,263.955,1191.636,264.337,1191.27Z" transform="translate(-213.625 -1174.337)"/><path class="c" d="M254.734,1188.961a4.13,4.13,0,0,0,.567-.614,4,4,0,0,0,1.111-1.883,2.928,2.928,0,0,0,.046-.751.377.377,0,0,0,.059-.318,13.54,13.54,0,0,0-.582-1.9l-.03-.257a.334.334,0,0,0-.2-.28c-.044-.1-.086-.2-.133-.3a6.047,6.047,0,0,1-.622-1.295c-.169-.995.766-1.74,1.518-2.107a.408.408,0,0,0-.293-.753.439.439,0,0,0-.08.021c-.027.013-.053.031-.08.044a4.049,4.049,0,0,0-.38.221,2.985,2.985,0,0,0-1.535,2.288,2.865,2.865,0,0,0,.449,1.39l.076.152c.08.156.15.314.223.47.03.129.072.253.114.375.063.181.133.357.209.531l.015.143c.011.093.023.188.032.281a5.732,5.732,0,0,1-.219,2.769c-.036.09-.074.177-.12.264a2.724,2.724,0,0,1-.2.341c-.082.093-.167.188-.253.283l-.242.27C253.842,1188.731,254.327,1189.319,254.734,1188.961Z" transform="translate(-222.274 -1174.849)"/><path class="c" d="M259.425,1179.331a5.141,5.141,0,0,0-.858.6c-.03.027-.065.049-.1.078a.377.377,0,0,0-.114.185.428.428,0,0,0,.264.5.359.359,0,0,0,.4-.074,4.215,4.215,0,0,1,.782-.559.428.428,0,0,0,.135-.116C260.167,1179.638,259.832,1179.106,259.425,1179.331Z" transform="translate(-218.421 -1174.141)"/><path class="c" d="M263.095,1186.712a26.568,26.568,0,0,1-9.59,3.21c-.049.006-.1.011-.148.019-.2.027-.394.053-.591.078l-.238.029c-.795.093-1.6.16-2.408.205a45.808,45.808,0,0,1-5.76-.057c-.1-.008-.19-.011-.287-.019-.053-.006-.108-.008-.162-.011a11.232,11.232,0,0,1-3.9-.73,2.593,2.593,0,0,1-1.626-2.826c.04-.05.08-.1.12-.146a.321.321,0,0,0,.07-.344,2.658,2.658,0,0,1,.285-.437c.335-.409-.352-.859-.683-.455-.042.05-.076.1-.114.154a3.189,3.189,0,0,0-.2.32,3.371,3.371,0,0,0-.245.585l-.011.021a3.077,3.077,0,0,0-.127,2.143,1.533,1.533,0,0,0,1.01,1.289,1.512,1.512,0,0,0,.217.064,1.743,1.743,0,0,0,.181.034c1.9,1.278,4.87,1.183,6.916,1.264a35.013,35.013,0,0,0,14.618-2.174l.068-.029a25.093,25.093,0,0,0,2.634-1.268c.116-.063.232-.122.346-.188C263.924,1187.182,263.555,1186.448,263.095,1186.712Z" transform="translate(-237.35 -1168.919)"/><path class="c" d="M257.492,1187.182a.4.4,0,0,0-.114-.291,7.194,7.194,0,0,1,.69-.314c.424-.179.194-.757-.194-.766a.412.412,0,0,0-.179.034c-.911.38-1.829.907-1.949,1.986a.413.413,0,0,0,.5.426,2.528,2.528,0,0,0,.464-.221.4.4,0,0,0,.245-.026.544.544,0,0,0,.055-.036.4.4,0,0,0,.272-.165l.084-.112a.478.478,0,0,0,.03-.063.384.384,0,0,0,.036-.143A.916.916,0,0,0,257.492,1187.182Z" transform="translate(-220.765 -1168.249)"/><path class="c" d="M262.585,1183.407c.333-.413-.356-.864-.685-.456a3.654,3.654,0,0,1-1.046.892,2.749,2.749,0,0,0-.981.643.583.583,0,0,0-.038.063.345.345,0,0,0-.044.16.43.43,0,0,0,.766.232c.108-.145.352-.2.508-.279.055-.027.106-.059.158-.088.139-.078.274-.162.4-.253a3.855,3.855,0,0,0,.318-.262A5.291,5.291,0,0,0,262.585,1183.407Z" transform="translate(-217.116 -1170.972)"/><path class="c" d="M264.422,1181.191a.377.377,0,0,0-.114-.2.372.372,0,0,0-.247-.24,1.386,1.386,0,0,0-1.592.554.387.387,0,0,0-.053.139.408.408,0,0,0,.371.5,3.373,3.373,0,0,0,.823-.1.4.4,0,0,0,.474.082.869.869,0,0,0,.192-.167A.65.65,0,0,0,264.422,1181.191Z" transform="translate(-214.756 -1172.873)"/><path class="c" d="M279.69,1182.273a.411.411,0,0,0-.551-.179l-.645.393a.421.421,0,0,0-.181.552.416.416,0,0,0,.553.18l.243-.15.4-.243a.584.584,0,0,0,.127-.116A.4.4,0,0,0,279.69,1182.273Z" transform="translate(-200.455 -1171.644)"/><path class="c" d="M276.05,1188.408a6.43,6.43,0,0,1,3.836-4.973c.5-.156.335-.962-.171-.8a4.957,4.957,0,0,0-.761.316,7.417,7.417,0,0,0-3.651,4.927c-.03.163-.057.325-.072.487C275.175,1188.887,276,1188.933,276.05,1188.408Z" transform="translate(-203.197 -1171.135)"/><path class="c" d="M287.3,1192.592c-.759.044-2.278-1.871-2.276-2.571a1.885,1.885,0,0,1,.38-.913l.036-.053c.205-.3.441-.584.591-.776.485-.62.983-1.194,1.415-1.843a5.278,5.278,0,0,0,2.929-2.175c.11-.135.217-.27.32-.4l.314-.4c.08-.1.158-.2.236-.295.034-.042.068-.085.1-.125.12-.147.24-.282.359-.413.093-.1.186-.2.28-.295a9.351,9.351,0,0,1,2.421-1.78c.242-.129.489-.256.759-.386a1.874,1.874,0,0,0,.941-.671l.009-.011a1.773,1.773,0,0,1,.287.139c.449.276.905-.407.455-.685a2.691,2.691,0,0,0-1.66-.394c-2.253.173-4.648,2.83-5.9,4.688-.152.226-.287.441-.4.639a.409.409,0,0,0,.162.58c-.036.036-.072.074-.11.108a3.344,3.344,0,0,1-.65.525,1.119,1.119,0,0,0-.609.639.426.426,0,0,0-.472-.222.439.439,0,0,0-.173.074l-.082.057a.369.369,0,0,0-.131.249c-.285.428-.639.856-1,1.293-.962,1.169-1.957,2.411-1.7,3.923a2.71,2.71,0,0,0,1.782,2.12c.03.011.063.021.1.03a3.33,3.33,0,0,0,1.242.164.408.408,0,0,0,.272-.122C287.77,1193.058,287.715,1192.569,287.3,1192.592Z" transform="translate(-195.199 -1174.81)"/><path class="c" d="M265.792,1178.291l-.051.186a.461.461,0,0,0,.207.5.346.346,0,0,0,.141.051.336.336,0,0,0,.226-.051,1.386,1.386,0,0,0,.664-1.156,3.569,3.569,0,0,0-.074-.936.388.388,0,0,0-.1-.192.418.418,0,0,0-.7.365c.013.068.03.148.046.23l.017.1a.351.351,0,0,0-.179.226l-.074.264-.1.344Z" transform="translate(-211.764 -1176.576)"/></g></g><path class="d" d="M467.953,1243.249H252.018V1083.015h45.018" transform="translate(23.878)"/><path class="d" d="M455.969,1140.993v105.3H225.537" transform="translate(0 52.277)"/></g></g></svg>