<svg xmlns="http://www.w3.org/2000/svg" width="149.787" height="82.832" viewBox="0 0 149.787 82.832"><defs><style>.a{fill:#333;}</style></defs><g transform="translate(-68.646 -108.502)"><path class="a" d="M150.053,115.521H137.4v-6.442H156.81v.869q-.033,28.836-.078,57.672a21.323,21.323,0,0,1-3.1,10.228c-3.941,7.145-9.84,11.683-18,12.938-8.444,1.3-15.972-.644-22.231-6.7-.186-.18-.354-.38-.556-.6l5.834-4.878a16.613,16.613,0,0,0,8.345,4.719c7.487,1.766,20.07-2.332,22.618-13.656a18.155,18.155,0,0,0,.445-5.989,11.137,11.137,0,0,1-.036-1.19q0-22.959,0-45.917Z" transform="translate(12.523 0.164)"/><path class="a" d="M177.131,141.68a13.734,13.734,0,1,1-13.779-13.689A13.751,13.751,0,0,1,177.131,141.68Zm-13.764,6.954a7.048,7.048,0,1,0-7.045-7.012A7.091,7.091,0,0,0,163.368,148.634Z" transform="translate(22.953 5.522)"/><path class="a" d="M180.545,151.383h8.082v6.171H173.851v-41.41h4.606c2.088,0,2.088,0,2.088,2.112v33.126Z" transform="translate(29.806 2.165)"/><path class="a" d="M111.658,115.283c-1.635,1.353-3.2,2.621-4.726,3.924-.4.336-.66.119-.986-.047a56.043,56.043,0,0,0-5.235-2.631,18.9,18.9,0,0,0-23.427,9.343c-4.513,8.659-.558,20.876,6.767,25.185a17.49,17.49,0,0,0,6.88,2.248,22.992,22.992,0,0,0,9.526-.4,16.283,16.283,0,0,0,8-5.068,10.09,10.09,0,0,0,2.173-6.886H99.068v-6.461H117v25.489H110.68v-4.955c-.364.249-.584.4-.807.551-6.506,4.29-13.589,5.994-21.257,4.327A24.636,24.636,0,0,1,68.8,137.6c-1.041-11.075,3.3-19.734,12.8-25.412,7.5-4.488,15.522-4.877,23.582-1.164a20.806,20.806,0,0,1,5.593,3.43C111.04,114.7,111.307,114.955,111.658,115.283Z" transform="translate(0 0)"/><path class="a" d="M129.454,129.712c.289-1.027,1.055-1.02,1.889-1,1.636.041,3.275.013,4.963.013V154.4h-1.7c-1.272,0-2.544-.009-3.815,0-.534.005-1.048.026-1.092-.78A13.739,13.739,0,0,1,111.466,133.9C114.73,129.353,121.257,126.2,129.454,129.712ZM115.56,141.486a7.041,7.041,0,1,0,7.035-7.008A7.056,7.056,0,0,0,115.56,141.486Z" transform="translate(11.406 5.583)"/><circle class="a" cx="2.447" cy="2.447" r="2.447" transform="translate(152.716 144.506)"/></g></svg>