<svg xmlns="http://www.w3.org/2000/svg" width="177.866" height="77.708" viewBox="0 0 177.866 77.708">
  <g id="Group_361" data-name="Group 361" transform="translate(-257.264 -42.596)">
    <path id="Path_1344" data-name="Path 1344" d="M303.247,49.638a12.1,12.1,0,0,1-.406,2.988c-3.748,13.679-17.527,23.708-29.027,26.545a23.981,23.981,0,0,1-4.914.557h-.759c-2.634,8.51-5.623,17.427-8.257,25.987a.836.836,0,0,1-.608.406h-.2a.839.839,0,0,1-.458-.76l8.156-25.683a6.836,6.836,0,0,1-3.95-1.975,5.1,5.1,0,0,1-1.216-3.394,10.691,10.691,0,0,1,.71-3.344.749.749,0,0,1,.81-.356.623.623,0,0,1,.4.81,9.191,9.191,0,0,0-.658,2.939,3.592,3.592,0,0,0,.861,2.533,6.239,6.239,0,0,0,3.445,1.469l7.5-23.506a.836.836,0,0,1,.76-.456.754.754,0,0,1,.456.81l-7.4,23.253a20.95,20.95,0,0,0,5.065-.558c10.893-2.533,24.418-12.36,27.964-25.583a10.278,10.278,0,0,0,.354-2.684,5.039,5.039,0,0,0-3.7-5.117,12.409,12.409,0,0,0-4.306-.66c-10.943,0-30.092,9.17-35.309,21.429a.617.617,0,0,1-.861.356.641.641,0,0,1-.406-.862c2.938-6.535,9.979-13.121,19.149-17.527,6.23-3.04,12.563-4.66,17.375-4.66a14.7,14.7,0,0,1,4.712.658C301.625,44.369,303.247,46.546,303.247,49.638Z" transform="translate(0)" fill="#333"/>
    <path id="Path_1345" data-name="Path 1345" d="M281.309,78.282c-.456.862-3.85,7.042-7.142,7.042a1.034,1.034,0,0,1-.914-.709,10.59,10.59,0,0,1,.356-3.192l-.152-.152a5.015,5.015,0,0,1-3.546,1.773,1.67,1.67,0,0,1-1.774-1.317c-.5-1.773,1.37-5.016,3.242-6.333a4.269,4.269,0,0,1,1.926-.607,3.2,3.2,0,0,1,2.077.81l.406-.964a.681.681,0,0,0,.05-.252,1.818,1.818,0,0,1,.3-.4h-.052c.2-.1.458-.2.558-.1a.73.73,0,0,1,.406.962L276.6,76.1c-.76,2.23-2.179,6.435-2.179,7.954,2.025-.557,4.508-4.153,5.725-6.383a.667.667,0,0,1,.861-.3A.711.711,0,0,1,281.309,78.282Zm-6.435-1.519a3.046,3.046,0,0,0-1.621-.66,2.63,2.63,0,0,0-1.215.406c-1.621,1.064-2.837,3.8-2.583,4.964.052.2.1.3.456.3C271.786,81.778,273.559,79.347,274.874,76.763Z" transform="translate(4.261 12.336)" fill="#333"/>
    <path id="Path_1346" data-name="Path 1346" d="M285.831,69.546c-4.712,15.046-8.512,28.975-8.461,32.016,2.077-1.216,6.485-8.764,8.41-12.056a56.909,56.909,0,0,1,2.989-4.914v.05a.757.757,0,0,1,.961-.1h-.05c.2.2.406.506.3.607-.607.81-1.823,2.837-3.09,5.016-5.066,8.662-7.75,12.715-9.777,12.715a.8.8,0,0,1-.759-.506c-.406-.508-.458-3.952,5.419-24.012L284.361,70l-15.1,4.254h-.1a.6.6,0,0,1-.607-.506c-.1-.252.151-.607.456-.76l15.855-4.458c1.368-4.507,2.585-8.357,3.242-10.384.3-1.013.508-1.621.508-1.621a.851.851,0,0,1,.861-.456,1.118,1.118,0,0,1,.456.81c-1.267,3.6-2.482,7.548-3.6,11.2l9.017-2.583a1.185,1.185,0,0,1,.81.506,1.088,1.088,0,0,1-.506.81Z" transform="translate(4.45 5.318)" fill="#333"/>
    <path id="Path_1347" data-name="Path 1347" d="M282.516,86.229l.05.05a.887.887,0,0,1-.506-.76L284.592,72.9a.567.567,0,0,1,.71-.506.644.644,0,0,1,.557.76l-1.267,6.687.2.05c2.279-4.407,5.573-9.575,7.954-9.372,1.113.1,1.975,1.166,2.431,3.041a.621.621,0,0,1-.456.759.737.737,0,0,1-.862-.506c-.3-1.215-.759-1.975-1.216-1.975-2.025,0-6.332,7.294-9.269,14.031a.958.958,0,0,1-.658.356Z" transform="translate(9.792 11.027)" fill="#333"/>
    <path id="Path_1348" data-name="Path 1348" d="M307.392,78.419a93.776,93.776,0,0,0-8.308,6.333c-.81,1.975-1.773,4.3-2.735,6.332-4.559,9.879-8.612,15.1-11.854,15.1a3.718,3.718,0,0,1-.912-.1,2.606,2.606,0,0,1-2.025-2.126c-.456-4.256,8.763-13.425,16.413-19.858l1.419-3.648-.152-.152c-2.127,2.533-4.306,3.952-5.675,4.052a1.738,1.738,0,0,1-1.569-.709c-.658-1.064-.2-3.141,1.265-5.979a.671.671,0,0,1,.863-.3.712.712,0,0,1,.3.911c-1.673,3.243-1.367,4.61-1.317,4.762h.354c1.621-.1,5.522-3.293,8.156-8.814a.7.7,0,0,1,.861-.3.653.653,0,0,1,.306.862c0,.05-1.116,3.292-2.737,7.6,3.242-2.583,5.673-4.408,6.687-5.015a.73.73,0,0,1,.962.2A.626.626,0,0,1,307.392,78.419Zm-10.739,8.764-.152-.152c-6.94,6.079-13.981,13.627-13.627,16.717.05.406.2.861,1.064,1.115C287.383,105.825,292.5,97.011,296.652,87.183Z" transform="translate(9.587 12.352)" fill="#333"/>
    <path id="Path_1349" data-name="Path 1349" d="M301.464,85.415v.05a2.893,2.893,0,0,1-2.329-1.571,4.184,4.184,0,0,1-.406-1.975,11.474,11.474,0,0,1,2.381-6.181c1.216-1.875,3.04-2.786,4.2-2.229a1.658,1.658,0,0,1,.558,1.975c-.153.305-.558.558-.81.406a.706.706,0,0,1-.458-.861c0-.05.052-.254.052-.3-.406-.1-1.469.2-2.533,1.773-2.077,2.989-2.331,5.573-1.773,6.839a1.318,1.318,0,0,0,1.216.81c1.417.1,4.052-1.52,7.142-6.333a.584.584,0,0,1,.862-.152c.3.152.3.558.2.862-2.787,4.407-5.775,6.889-8.106,6.889Z" transform="translate(16.375 12.144)" fill="#333"/>
    <path id="Path_1350" data-name="Path 1350" d="M312.918,84.849a30.475,30.475,0,0,0-4.762,2.483c-4.609,12.208-8.1,19.046-10.434,20.415a2.694,2.694,0,0,1-1.267.354,2.039,2.039,0,0,1-.912-.2,4.28,4.28,0,0,1-.912-3.394c.608-4.863,4.762-12.918,12.462-18.035a3.426,3.426,0,0,1,.2-.658c.81-2.177,1.723-4.559,2.685-7.294l.2-.658a1.148,1.148,0,0,1,.81-.406.713.713,0,0,1,.4.81l-.2.658-2.331,6.435a37.35,37.35,0,0,1,3.6-1.723.616.616,0,0,1,.81.354A.748.748,0,0,1,312.918,84.849Zm-6.636,3.7c-6.889,5.32-9.929,12.564-10.335,16.11-.1,1.317.153,2.027.354,2.127.1.1.406.05.76-.2C298.228,105.923,300.913,102.63,306.282,88.547ZM311.8,74.768c-.456.1-1.267.153-.963-.354v.05l.1-.2c.1-.3.2-.608.608-.709h-.05c.455-.1,1.417-.1,1.265.3A1.221,1.221,0,0,1,311.8,74.768Z" transform="translate(14.75 12.203)" fill="#333"/>
    <path id="Path_1351" data-name="Path 1351" d="M321.293,78.282c-.455.862-3.85,7.042-7.142,7.042a1.031,1.031,0,0,1-.912-.709,10.579,10.579,0,0,1,.354-3.192l-.152-.152a5.013,5.013,0,0,1-3.546,1.773,1.666,1.666,0,0,1-1.772-1.317c-.508-1.773,1.367-5.016,3.242-6.333a4.248,4.248,0,0,1,1.925-.607,3.192,3.192,0,0,1,2.076.81l.406-.964a.682.682,0,0,0,.05-.252,1.914,1.914,0,0,1,.3-.4h-.05c.2-.1.456-.2.557-.1a.726.726,0,0,1,.4.962l-.455,1.265c-.76,2.23-2.177,6.435-2.177,7.954,2.025-.557,4.507-4.153,5.723-6.383a.667.667,0,0,1,.861-.3A.711.711,0,0,1,321.293,78.282Zm-6.433-1.519a3.055,3.055,0,0,0-1.621-.66,2.63,2.63,0,0,0-1.215.406c-1.622,1.064-2.839,3.8-2.585,4.964.052.2.1.3.456.3C311.77,81.778,313.543,79.347,314.86,76.763Z" transform="translate(20.052 12.336)" fill="#333"/>
    <path id="Path_1352" data-name="Path 1352" d="M366.143,53.057A7.622,7.622,0,0,1,366.6,56.1c0,12.967-15.046,52.279-17.629,58.914a.7.7,0,0,1-.607.354c-.1,0-.153,0-.1.05-.4-.151-.657-.557-.506-.861,5.27-13.475,17.63-47.668,17.63-58.408a6.42,6.42,0,0,0-.406-2.533.925.925,0,0,0-.506-.506c-1.318-.354-4.965,2.786-10.487,11.954a149.593,149.593,0,0,0-7.142,13.374,107.191,107.191,0,0,1-4.812,10.993c-1.825,4.913-2.078,4.913-2.483,4.963v-.05a.778.778,0,0,1-.709-.456c-.152-.2-.254-.4,2.027-4.964,1.317-3.5,2.938-7.244,4.812-11.094,2.025-5.573,3.342-10.942,3.342-14.741a8.1,8.1,0,0,0-.76-3.85,2.736,2.736,0,0,0-2.482-1.469c-5.016-.05-13.271,23.2-17.325,34.8-3.091,8.967-3.748,10.435-4.559,10.435a.819.819,0,0,1-.71-.456c-.81-3.242,8.308-34.8,11.094-44.528a.634.634,0,1,1,1.216.356c-3.546,12.258-8.612,30.748-10.435,39.208l.2.1c.456-1.216,1.419-3.952,1.925-5.521,6.433-18.237,13.171-35.816,18.491-35.816l.05.05a4.1,4.1,0,0,1,3.646,2.179,9.324,9.324,0,0,1,.914,4.61,31.381,31.381,0,0,1-.81,6.737l.2.1c1.014-1.975,2.077-3.9,3.192-5.623,5.37-9.067,9.423-13.271,11.9-12.563A2.478,2.478,0,0,1,366.143,53.057Z" transform="translate(26.013 3.621)" fill="#333"/>
    <path id="Path_1353" data-name="Path 1353" d="M365.784,78.575c-2.279,3.648-3.75,4.964-4.965,4.56-.962-.354-1.317-1.977-1.367-3.75-2.535,4.256-4.762,6.485-6.385,6.485a1.8,1.8,0,0,1-.81-.152c-.81-.406-1.267-1.419-1.267-2.938,0-2.23.862-5.472,2.635-9.322a.668.668,0,0,1,.861-.3.619.619,0,0,1,.356.862c-1.925,4.2-2.585,7.194-2.585,8.814a2.122,2.122,0,0,0,.608,1.723c.66.3,3.293-1.419,6.839-8.51a.628.628,0,0,1,.76-.305.717.717,0,0,1,.455.71h.052a17.54,17.54,0,0,0-.254,2.887c0,1.317.152,2.381.456,2.583,0,0,1.014-.05,3.546-4a.651.651,0,0,1,.912-.2A.582.582,0,0,1,365.784,78.575Z" transform="translate(37.014 12.044)" fill="#333"/>
    <path id="Path_1354" data-name="Path 1354" d="M369.882,77.962c.356-.1.66.252.76.557a.974.974,0,0,1-.557.709,14.154,14.154,0,0,0-6.535,3.6,11.247,11.247,0,0,1,.1,1.621c0,1.773-.709,3.546-3.6,4.712l.052-.052c-.052,0-.052.052-.1.052a1.8,1.8,0,0,1-.709.151.958.958,0,0,1-.658-.252,1.427,1.427,0,0,1-.254-1.419,14.469,14.469,0,0,1,3.7-5.117c0-.05-.052-.2-.052-.252v-.254a15.538,15.538,0,0,1-.354-2.989c0-2.331,1.417-4.914,6.23-6.687.254,0,.71.152.81.456.153.254-.1.658-.4.81-4.254,1.52-5.421,3.4-5.421,5.421a16.133,16.133,0,0,0,.356,2.431,14.193,14.193,0,0,1,6.584-3.494ZM359.9,87.84a3.56,3.56,0,0,0,2.431-3.8,17.13,17.13,0,0,0-2.582,3.646Z" transform="translate(39.906 11.745)" fill="#333"/>
    <path id="Path_1355" data-name="Path 1355" d="M392.086,79.312c.152.252.253.709.05.911-5.775,5.827-6.333,5.827-6.687,5.827a.77.77,0,0,1-.557-.3v.05c-.2-.354-.506-.759,2.583-9.727a4.749,4.749,0,0,1-1.873.152,9.627,9.627,0,0,1-2.585-.658,31.8,31.8,0,0,1-2.431,4.56c-2.127,3.6-3.6,4.964-4.913,4.559-.964-.354-1.368-1.975-1.419-3.8-2.483,4.2-4.712,6.484-6.383,6.484a2.44,2.44,0,0,1-.76-.1c-.81-.4-1.267-1.469-1.267-2.988a24.85,24.85,0,0,1,2.583-9.271.688.688,0,0,1,.912-.354.647.647,0,0,1,.354.861c-1.977,4.306-2.583,7.194-2.583,8.814a2.138,2.138,0,0,0,.557,1.723c.66.3,3.345-1.419,6.839-8.51a.6.6,0,0,1,.76-.356.72.72,0,0,1,.456.71h.05a27.485,27.485,0,0,0-.2,2.837c0,1.367.1,2.431.508,2.685,0,0,1.013-.052,3.444-4,1.064-1.823,1.825-3.292,2.331-4.407a8.117,8.117,0,0,1-3.091-2.837.962.962,0,0,1,.052-.658,4.4,4.4,0,0,1,2.483-2.025,2.506,2.506,0,0,1,1.772.354,2.426,2.426,0,0,1,.862,2.077,7.809,7.809,0,0,1-.456,2.431,7.474,7.474,0,0,0,2.279.557,2.429,2.429,0,0,0,2.482-.911.647.647,0,0,1,1.115.607c-1.165,3.293-2.38,7.043-2.936,9.119l.151.152.508-.506c1.163-1.115,2.734-2.583,4.1-4A.76.76,0,0,1,392.086,79.312Zm-9.725-5.674c.657-2.177.05-2.685-.053-2.735a1.039,1.039,0,0,0-.757-.152,2.624,2.624,0,0,0-1.42,1.115,6.251,6.251,0,0,0,2.077,1.825Z" transform="translate(42.88 10.598)" fill="#333"/>
  </g>
</svg>
